<?xml version="1.0" encoding="utf-8" standalone="no"?>
<!DOCTYPE svg PUBLIC "-//W3C//DTD SVG 1.1//EN"
  "http://www.w3.org/Graphics/SVG/1.1/DTD/svg11.dtd">
<svg xmlns:xlink="http://www.w3.org/1999/xlink" width="460.8pt" height="316.8pt" viewBox="0 0 460.8 316.8" xmlns="http://www.w3.org/2000/svg" version="1.1">
 <metadata>
  <rdf:RDF xmlns:dc="http://purl.org/dc/elements/1.1/" xmlns:cc="http://creativecommons.org/ns#" xmlns:rdf="http://www.w3.org/1999/02/22-rdf-syntax-ns#">
   <cc:Work>
    <dc:type rdf:resource="http://purl.org/dc/dcmitype/StillImage"/>
    <dc:date>2026-03-19T13:50:03.876183</dc:date>
    <dc:format>image/svg+xml</dc:format>
    <dc:creator>
     <cc:Agent>
      <dc:title>Matplotlib v3.10.8, https://matplotlib.org/</dc:title>
     </cc:Agent>
    </dc:creator>
   </cc:Work>
  </rdf:RDF>
 </metadata>
 <defs>
  <style type="text/css">*{stroke-linejoin: round; stroke-linecap: butt}</style>
 </defs>
 <g id="figure_1">
  <g id="patch_1">
   <path d="M 0 316.8 
L 460.8 316.8 
L 460.8 0 
L 0 0 
z
" style="fill: #ffffff"/>
  </g>
  <g id="axes_1">
   <g id="patch_2">
    <path d="M 57.6 281.952 
L 414.72 281.952 
L 414.72 38.016 
L 57.6 38.016 
z
" style="fill: #ffffff"/>
   </g>
   <g id="matplotlib.axis_1">
    <g id="xtick_1">
     <g id="line2d_1">
      <path d="M 57.6 281.952 
L 57.6 38.016 
" clip-path="url(#p77b4f22513)" style="fill: none; stroke-dasharray: 2.96,1.28; stroke-dashoffset: 0; stroke: #b0b0b0; stroke-opacity: 0.3; stroke-width: 0.8"/>
     </g>
     <g id="line2d_2">
      <defs>
       <path id="mce5ea1109b" d="M 0 0 
L 0 3.5 
" style="stroke: #000000; stroke-width: 0.8"/>
      </defs>
      <g>
       <use xlink:href="#mce5ea1109b" x="57.6" y="281.952" style="stroke: #000000; stroke-width: 0.8"/>
      </g>
     </g>
     <g id="text_1">
      <!-- 0.0 -->
      <g transform="translate(51.23875 297.13075) scale(0.08 -0.08)">
       <defs>
        <path id="DejaVuSans-30" d="M 2034 4250 
Q 1547 4250 1301 3770 
Q 1056 3291 1056 2328 
Q 1056 1369 1301 889 
Q 1547 409 2034 409 
Q 2525 409 2770 889 
Q 3016 1369 3016 2328 
Q 3016 3291 2770 3770 
Q 2525 4250 2034 4250 
z
M 2034 4750 
Q 2819 4750 3233 4129 
Q 3647 3509 3647 2328 
Q 3647 1150 3233 529 
Q 2819 -91 2034 -91 
Q 1250 -91 836 529 
Q 422 1150 422 2328 
Q 422 3509 836 4129 
Q 1250 4750 2034 4750 
z
" transform="scale(0.015625)"/>
        <path id="DejaVuSans-2e" d="M 684 794 
L 1344 794 
L 1344 0 
L 684 0 
L 684 794 
z
" transform="scale(0.015625)"/>
       </defs>
       <use xlink:href="#DejaVuSans-30"/>
       <use xlink:href="#DejaVuSans-2e" transform="translate(63.623047 0)"/>
       <use xlink:href="#DejaVuSans-30" transform="translate(95.410156 0)"/>
      </g>
     </g>
    </g>
    <g id="xtick_2">
     <g id="line2d_3">
      <path d="M 129.024 281.952 
L 129.024 38.016 
" clip-path="url(#p77b4f22513)" style="fill: none; stroke-dasharray: 2.96,1.28; stroke-dashoffset: 0; stroke: #b0b0b0; stroke-opacity: 0.3; stroke-width: 0.8"/>
     </g>
     <g id="line2d_4">
      <g>
       <use xlink:href="#mce5ea1109b" x="129.024" y="281.952" style="stroke: #000000; stroke-width: 0.8"/>
      </g>
     </g>
     <g id="text_2">
      <!-- 0.2 -->
      <g transform="translate(122.66275 297.13075) scale(0.08 -0.08)">
       <defs>
        <path id="DejaVuSans-32" d="M 1228 531 
L 3431 531 
L 3431 0 
L 469 0 
L 469 531 
Q 828 903 1448 1529 
Q 2069 2156 2228 2338 
Q 2531 2678 2651 2914 
Q 2772 3150 2772 3378 
Q 2772 3750 2511 3984 
Q 2250 4219 1831 4219 
Q 1534 4219 1204 4116 
Q 875 4013 500 3803 
L 500 4441 
Q 881 4594 1212 4672 
Q 1544 4750 1819 4750 
Q 2544 4750 2975 4387 
Q 3406 4025 3406 3419 
Q 3406 3131 3298 2873 
Q 3191 2616 2906 2266 
Q 2828 2175 2409 1742 
Q 1991 1309 1228 531 
z
" transform="scale(0.015625)"/>
       </defs>
       <use xlink:href="#DejaVuSans-30"/>
       <use xlink:href="#DejaVuSans-2e" transform="translate(63.623047 0)"/>
       <use xlink:href="#DejaVuSans-32" transform="translate(95.410156 0)"/>
      </g>
     </g>
    </g>
    <g id="xtick_3">
     <g id="line2d_5">
      <path d="M 200.448 281.952 
L 200.448 38.016 
" clip-path="url(#p77b4f22513)" style="fill: none; stroke-dasharray: 2.96,1.28; stroke-dashoffset: 0; stroke: #b0b0b0; stroke-opacity: 0.3; stroke-width: 0.8"/>
     </g>
     <g id="line2d_6">
      <g>
       <use xlink:href="#mce5ea1109b" x="200.448" y="281.952" style="stroke: #000000; stroke-width: 0.8"/>
      </g>
     </g>
     <g id="text_3">
      <!-- 0.4 -->
      <g transform="translate(194.08675 297.13075) scale(0.08 -0.08)">
       <defs>
        <path id="DejaVuSans-34" d="M 2419 4116 
L 825 1625 
L 2419 1625 
L 2419 4116 
z
M 2253 4666 
L 3047 4666 
L 3047 1625 
L 3713 1625 
L 3713 1100 
L 3047 1100 
L 3047 0 
L 2419 0 
L 2419 1100 
L 313 1100 
L 313 1709 
L 2253 4666 
z
" transform="scale(0.015625)"/>
       </defs>
       <use xlink:href="#DejaVuSans-30"/>
       <use xlink:href="#DejaVuSans-2e" transform="translate(63.623047 0)"/>
       <use xlink:href="#DejaVuSans-34" transform="translate(95.410156 0)"/>
      </g>
     </g>
    </g>
    <g id="xtick_4">
     <g id="line2d_7">
      <path d="M 271.872 281.952 
L 271.872 38.016 
" clip-path="url(#p77b4f22513)" style="fill: none; stroke-dasharray: 2.96,1.28; stroke-dashoffset: 0; stroke: #b0b0b0; stroke-opacity: 0.3; stroke-width: 0.8"/>
     </g>
     <g id="line2d_8">
      <g>
       <use xlink:href="#mce5ea1109b" x="271.872" y="281.952" style="stroke: #000000; stroke-width: 0.8"/>
      </g>
     </g>
     <g id="text_4">
      <!-- 0.6 -->
      <g transform="translate(265.51075 297.13075) scale(0.08 -0.08)">
       <defs>
        <path id="DejaVuSans-36" d="M 2113 2584 
Q 1688 2584 1439 2293 
Q 1191 2003 1191 1497 
Q 1191 994 1439 701 
Q 1688 409 2113 409 
Q 2538 409 2786 701 
Q 3034 994 3034 1497 
Q 3034 2003 2786 2293 
Q 2538 2584 2113 2584 
z
M 3366 4563 
L 3366 3988 
Q 3128 4100 2886 4159 
Q 2644 4219 2406 4219 
Q 1781 4219 1451 3797 
Q 1122 3375 1075 2522 
Q 1259 2794 1537 2939 
Q 1816 3084 2150 3084 
Q 2853 3084 3261 2657 
Q 3669 2231 3669 1497 
Q 3669 778 3244 343 
Q 2819 -91 2113 -91 
Q 1303 -91 875 529 
Q 447 1150 447 2328 
Q 447 3434 972 4092 
Q 1497 4750 2381 4750 
Q 2619 4750 2861 4703 
Q 3103 4656 3366 4563 
z
" transform="scale(0.015625)"/>
       </defs>
       <use xlink:href="#DejaVuSans-30"/>
       <use xlink:href="#DejaVuSans-2e" transform="translate(63.623047 0)"/>
       <use xlink:href="#DejaVuSans-36" transform="translate(95.410156 0)"/>
      </g>
     </g>
    </g>
    <g id="xtick_5">
     <g id="line2d_9">
      <path d="M 343.296 281.952 
L 343.296 38.016 
" clip-path="url(#p77b4f22513)" style="fill: none; stroke-dasharray: 2.96,1.28; stroke-dashoffset: 0; stroke: #b0b0b0; stroke-opacity: 0.3; stroke-width: 0.8"/>
     </g>
     <g id="line2d_10">
      <g>
       <use xlink:href="#mce5ea1109b" x="343.296" y="281.952" style="stroke: #000000; stroke-width: 0.8"/>
      </g>
     </g>
     <g id="text_5">
      <!-- 0.8 -->
      <g transform="translate(336.93475 297.13075) scale(0.08 -0.08)">
       <defs>
        <path id="DejaVuSans-38" d="M 2034 2216 
Q 1584 2216 1326 1975 
Q 1069 1734 1069 1313 
Q 1069 891 1326 650 
Q 1584 409 2034 409 
Q 2484 409 2743 651 
Q 3003 894 3003 1313 
Q 3003 1734 2745 1975 
Q 2488 2216 2034 2216 
z
M 1403 2484 
Q 997 2584 770 2862 
Q 544 3141 544 3541 
Q 544 4100 942 4425 
Q 1341 4750 2034 4750 
Q 2731 4750 3128 4425 
Q 3525 4100 3525 3541 
Q 3525 3141 3298 2862 
Q 3072 2584 2669 2484 
Q 3125 2378 3379 2068 
Q 3634 1759 3634 1313 
Q 3634 634 3220 271 
Q 2806 -91 2034 -91 
Q 1263 -91 848 271 
Q 434 634 434 1313 
Q 434 1759 690 2068 
Q 947 2378 1403 2484 
z
M 1172 3481 
Q 1172 3119 1398 2916 
Q 1625 2713 2034 2713 
Q 2441 2713 2670 2916 
Q 2900 3119 2900 3481 
Q 2900 3844 2670 4047 
Q 2441 4250 2034 4250 
Q 1625 4250 1398 4047 
Q 1172 3844 1172 3481 
z
" transform="scale(0.015625)"/>
       </defs>
       <use xlink:href="#DejaVuSans-30"/>
       <use xlink:href="#DejaVuSans-2e" transform="translate(63.623047 0)"/>
       <use xlink:href="#DejaVuSans-38" transform="translate(95.410156 0)"/>
      </g>
     </g>
    </g>
    <g id="xtick_6">
     <g id="line2d_11">
      <path d="M 414.72 281.952 
L 414.72 38.016 
" clip-path="url(#p77b4f22513)" style="fill: none; stroke-dasharray: 2.96,1.28; stroke-dashoffset: 0; stroke: #b0b0b0; stroke-opacity: 0.3; stroke-width: 0.8"/>
     </g>
     <g id="line2d_12">
      <g>
       <use xlink:href="#mce5ea1109b" x="414.72" y="281.952" style="stroke: #000000; stroke-width: 0.8"/>
      </g>
     </g>
     <g id="text_6">
      <!-- 1.0 -->
      <g transform="translate(408.35875 297.13075) scale(0.08 -0.08)">
       <defs>
        <path id="DejaVuSans-31" d="M 794 531 
L 1825 531 
L 1825 4091 
L 703 3866 
L 703 4441 
L 1819 4666 
L 2450 4666 
L 2450 531 
L 3481 531 
L 3481 0 
L 794 0 
L 794 531 
z
" transform="scale(0.015625)"/>
       </defs>
       <use xlink:href="#DejaVuSans-31"/>
       <use xlink:href="#DejaVuSans-2e" transform="translate(63.623047 0)"/>
       <use xlink:href="#DejaVuSans-30" transform="translate(95.410156 0)"/>
      </g>
     </g>
    </g>
    <g id="text_7">
     <!-- Estimated Behaviour Policy ($\widehat{\pi}_b$) -->
     <g transform="translate(156.86 310.8945) scale(0.1 -0.1)">
      <defs>
       <path id="DejaVuSans-45" d="M 628 4666 
L 3578 4666 
L 3578 4134 
L 1259 4134 
L 1259 2753 
L 3481 2753 
L 3481 2222 
L 1259 2222 
L 1259 531 
L 3634 531 
L 3634 0 
L 628 0 
L 628 4666 
z
" transform="scale(0.015625)"/>
       <path id="DejaVuSans-73" d="M 2834 3397 
L 2834 2853 
Q 2591 2978 2328 3040 
Q 2066 3103 1784 3103 
Q 1356 3103 1142 2972 
Q 928 2841 928 2578 
Q 928 2378 1081 2264 
Q 1234 2150 1697 2047 
L 1894 2003 
Q 2506 1872 2764 1633 
Q 3022 1394 3022 966 
Q 3022 478 2636 193 
Q 2250 -91 1575 -91 
Q 1294 -91 989 -36 
Q 684 19 347 128 
L 347 722 
Q 666 556 975 473 
Q 1284 391 1588 391 
Q 1994 391 2212 530 
Q 2431 669 2431 922 
Q 2431 1156 2273 1281 
Q 2116 1406 1581 1522 
L 1381 1569 
Q 847 1681 609 1914 
Q 372 2147 372 2553 
Q 372 3047 722 3315 
Q 1072 3584 1716 3584 
Q 2034 3584 2315 3537 
Q 2597 3491 2834 3397 
z
" transform="scale(0.015625)"/>
       <path id="DejaVuSans-74" d="M 1172 4494 
L 1172 3500 
L 2356 3500 
L 2356 3053 
L 1172 3053 
L 1172 1153 
Q 1172 725 1289 603 
Q 1406 481 1766 481 
L 2356 481 
L 2356 0 
L 1766 0 
Q 1100 0 847 248 
Q 594 497 594 1153 
L 594 3053 
L 172 3053 
L 172 3500 
L 594 3500 
L 594 4494 
L 1172 4494 
z
" transform="scale(0.015625)"/>
       <path id="DejaVuSans-69" d="M 603 3500 
L 1178 3500 
L 1178 0 
L 603 0 
L 603 3500 
z
M 603 4863 
L 1178 4863 
L 1178 4134 
L 603 4134 
L 603 4863 
z
" transform="scale(0.015625)"/>
       <path id="DejaVuSans-6d" d="M 3328 2828 
Q 3544 3216 3844 3400 
Q 4144 3584 4550 3584 
Q 5097 3584 5394 3201 
Q 5691 2819 5691 2113 
L 5691 0 
L 5113 0 
L 5113 2094 
Q 5113 2597 4934 2840 
Q 4756 3084 4391 3084 
Q 3944 3084 3684 2787 
Q 3425 2491 3425 1978 
L 3425 0 
L 2847 0 
L 2847 2094 
Q 2847 2600 2669 2842 
Q 2491 3084 2119 3084 
Q 1678 3084 1418 2786 
Q 1159 2488 1159 1978 
L 1159 0 
L 581 0 
L 581 3500 
L 1159 3500 
L 1159 2956 
Q 1356 3278 1631 3431 
Q 1906 3584 2284 3584 
Q 2666 3584 2933 3390 
Q 3200 3197 3328 2828 
z
" transform="scale(0.015625)"/>
       <path id="DejaVuSans-61" d="M 2194 1759 
Q 1497 1759 1228 1600 
Q 959 1441 959 1056 
Q 959 750 1161 570 
Q 1363 391 1709 391 
Q 2188 391 2477 730 
Q 2766 1069 2766 1631 
L 2766 1759 
L 2194 1759 
z
M 3341 1997 
L 3341 0 
L 2766 0 
L 2766 531 
Q 2569 213 2275 61 
Q 1981 -91 1556 -91 
Q 1019 -91 701 211 
Q 384 513 384 1019 
Q 384 1609 779 1909 
Q 1175 2209 1959 2209 
L 2766 2209 
L 2766 2266 
Q 2766 2663 2505 2880 
Q 2244 3097 1772 3097 
Q 1472 3097 1187 3025 
Q 903 2953 641 2809 
L 641 3341 
Q 956 3463 1253 3523 
Q 1550 3584 1831 3584 
Q 2591 3584 2966 3190 
Q 3341 2797 3341 1997 
z
" transform="scale(0.015625)"/>
       <path id="DejaVuSans-65" d="M 3597 1894 
L 3597 1613 
L 953 1613 
Q 991 1019 1311 708 
Q 1631 397 2203 397 
Q 2534 397 2845 478 
Q 3156 559 3463 722 
L 3463 178 
Q 3153 47 2828 -22 
Q 2503 -91 2169 -91 
Q 1331 -91 842 396 
Q 353 884 353 1716 
Q 353 2575 817 3079 
Q 1281 3584 2069 3584 
Q 2775 3584 3186 3129 
Q 3597 2675 3597 1894 
z
M 3022 2063 
Q 3016 2534 2758 2815 
Q 2500 3097 2075 3097 
Q 1594 3097 1305 2825 
Q 1016 2553 972 2059 
L 3022 2063 
z
" transform="scale(0.015625)"/>
       <path id="DejaVuSans-64" d="M 2906 2969 
L 2906 4863 
L 3481 4863 
L 3481 0 
L 2906 0 
L 2906 525 
Q 2725 213 2448 61 
Q 2172 -91 1784 -91 
Q 1150 -91 751 415 
Q 353 922 353 1747 
Q 353 2572 751 3078 
Q 1150 3584 1784 3584 
Q 2172 3584 2448 3432 
Q 2725 3281 2906 2969 
z
M 947 1747 
Q 947 1113 1208 752 
Q 1469 391 1925 391 
Q 2381 391 2643 752 
Q 2906 1113 2906 1747 
Q 2906 2381 2643 2742 
Q 2381 3103 1925 3103 
Q 1469 3103 1208 2742 
Q 947 2381 947 1747 
z
" transform="scale(0.015625)"/>
       <path id="DejaVuSans-20" transform="scale(0.015625)"/>
       <path id="DejaVuSans-42" d="M 1259 2228 
L 1259 519 
L 2272 519 
Q 2781 519 3026 730 
Q 3272 941 3272 1375 
Q 3272 1813 3026 2020 
Q 2781 2228 2272 2228 
L 1259 2228 
z
M 1259 4147 
L 1259 2741 
L 2194 2741 
Q 2656 2741 2882 2914 
Q 3109 3088 3109 3444 
Q 3109 3797 2882 3972 
Q 2656 4147 2194 4147 
L 1259 4147 
z
M 628 4666 
L 2241 4666 
Q 2963 4666 3353 4366 
Q 3744 4066 3744 3513 
Q 3744 3084 3544 2831 
Q 3344 2578 2956 2516 
Q 3422 2416 3680 2098 
Q 3938 1781 3938 1306 
Q 3938 681 3513 340 
Q 3088 0 2303 0 
L 628 0 
L 628 4666 
z
" transform="scale(0.015625)"/>
       <path id="DejaVuSans-68" d="M 3513 2113 
L 3513 0 
L 2938 0 
L 2938 2094 
Q 2938 2591 2744 2837 
Q 2550 3084 2163 3084 
Q 1697 3084 1428 2787 
Q 1159 2491 1159 1978 
L 1159 0 
L 581 0 
L 581 4863 
L 1159 4863 
L 1159 2956 
Q 1366 3272 1645 3428 
Q 1925 3584 2291 3584 
Q 2894 3584 3203 3211 
Q 3513 2838 3513 2113 
z
" transform="scale(0.015625)"/>
       <path id="DejaVuSans-76" d="M 191 3500 
L 800 3500 
L 1894 563 
L 2988 3500 
L 3597 3500 
L 2284 0 
L 1503 0 
L 191 3500 
z
" transform="scale(0.015625)"/>
       <path id="DejaVuSans-6f" d="M 1959 3097 
Q 1497 3097 1228 2736 
Q 959 2375 959 1747 
Q 959 1119 1226 758 
Q 1494 397 1959 397 
Q 2419 397 2687 759 
Q 2956 1122 2956 1747 
Q 2956 2369 2687 2733 
Q 2419 3097 1959 3097 
z
M 1959 3584 
Q 2709 3584 3137 3096 
Q 3566 2609 3566 1747 
Q 3566 888 3137 398 
Q 2709 -91 1959 -91 
Q 1206 -91 779 398 
Q 353 888 353 1747 
Q 353 2609 779 3096 
Q 1206 3584 1959 3584 
z
" transform="scale(0.015625)"/>
       <path id="DejaVuSans-75" d="M 544 1381 
L 544 3500 
L 1119 3500 
L 1119 1403 
Q 1119 906 1312 657 
Q 1506 409 1894 409 
Q 2359 409 2629 706 
Q 2900 1003 2900 1516 
L 2900 3500 
L 3475 3500 
L 3475 0 
L 2900 0 
L 2900 538 
Q 2691 219 2414 64 
Q 2138 -91 1772 -91 
Q 1169 -91 856 284 
Q 544 659 544 1381 
z
M 1991 3584 
L 1991 3584 
z
" transform="scale(0.015625)"/>
       <path id="DejaVuSans-72" d="M 2631 2963 
Q 2534 3019 2420 3045 
Q 2306 3072 2169 3072 
Q 1681 3072 1420 2755 
Q 1159 2438 1159 1844 
L 1159 0 
L 581 0 
L 581 3500 
L 1159 3500 
L 1159 2956 
Q 1341 3275 1631 3429 
Q 1922 3584 2338 3584 
Q 2397 3584 2469 3576 
Q 2541 3569 2628 3553 
L 2631 2963 
z
" transform="scale(0.015625)"/>
       <path id="DejaVuSans-50" d="M 1259 4147 
L 1259 2394 
L 2053 2394 
Q 2494 2394 2734 2622 
Q 2975 2850 2975 3272 
Q 2975 3691 2734 3919 
Q 2494 4147 2053 4147 
L 1259 4147 
z
M 628 4666 
L 2053 4666 
Q 2838 4666 3239 4311 
Q 3641 3956 3641 3272 
Q 3641 2581 3239 2228 
Q 2838 1875 2053 1875 
L 1259 1875 
L 1259 0 
L 628 0 
L 628 4666 
z
" transform="scale(0.015625)"/>
       <path id="DejaVuSans-6c" d="M 603 4863 
L 1178 4863 
L 1178 0 
L 603 0 
L 603 4863 
z
" transform="scale(0.015625)"/>
       <path id="DejaVuSans-63" d="M 3122 3366 
L 3122 2828 
Q 2878 2963 2633 3030 
Q 2388 3097 2138 3097 
Q 1578 3097 1268 2742 
Q 959 2388 959 1747 
Q 959 1106 1268 751 
Q 1578 397 2138 397 
Q 2388 397 2633 464 
Q 2878 531 3122 666 
L 3122 134 
Q 2881 22 2623 -34 
Q 2366 -91 2075 -91 
Q 1284 -91 818 406 
Q 353 903 353 1747 
Q 353 2603 823 3093 
Q 1294 3584 2113 3584 
Q 2378 3584 2631 3529 
Q 2884 3475 3122 3366 
z
" transform="scale(0.015625)"/>
       <path id="DejaVuSans-79" d="M 2059 -325 
Q 1816 -950 1584 -1140 
Q 1353 -1331 966 -1331 
L 506 -1331 
L 506 -850 
L 844 -850 
Q 1081 -850 1212 -737 
Q 1344 -625 1503 -206 
L 1606 56 
L 191 3500 
L 800 3500 
L 1894 763 
L 2988 3500 
L 3597 3500 
L 2059 -325 
z
" transform="scale(0.015625)"/>
       <path id="DejaVuSans-28" d="M 1984 4856 
Q 1566 4138 1362 3434 
Q 1159 2731 1159 2009 
Q 1159 1288 1364 580 
Q 1569 -128 1984 -844 
L 1484 -844 
Q 1016 -109 783 600 
Q 550 1309 550 2009 
Q 550 2706 781 3412 
Q 1013 4119 1484 4856 
L 1984 4856 
z
" transform="scale(0.015625)"/>
       <path id="STIXSizeTwoSym-Regular-302" d="M -1094 3610 
L -1728 3610 
L -4224 4538 
L -6726 3610 
L -7360 3610 
L -4378 4973 
L -4070 4973 
L -1094 3610 
z
" transform="scale(0.015625)"/>
       <path id="DejaVuSans-Oblique-3c0" d="M 584 3500 
L 3938 3500 
L 3825 2925 
L 3384 2925 
L 2966 775 
Q 2922 550 2981 450 
Q 3038 353 3209 353 
Q 3256 353 3325 363 
Q 3397 369 3419 372 
L 3338 -44 
Q 3222 -84 3103 -103 
Q 2981 -122 2866 -122 
Q 2491 -122 2388 81 
Q 2284 288 2391 838 
L 2797 2925 
L 1506 2925 
L 938 0 
L 350 0 
L 919 2925 
L 472 2925 
L 584 3500 
z
" transform="scale(0.015625)"/>
       <path id="DejaVuSans-Oblique-62" d="M 3169 2138 
Q 3169 2591 2961 2847 
Q 2753 3103 2388 3103 
Q 2122 3103 1889 2973 
Q 1656 2844 1484 2597 
Q 1303 2338 1198 1995 
Q 1094 1653 1094 1313 
Q 1094 881 1298 636 
Q 1503 391 1863 391 
Q 2134 391 2365 517 
Q 2597 644 2772 891 
Q 2950 1147 3059 1487 
Q 3169 1828 3169 2138 
z
M 1381 2969 
Q 1594 3256 1914 3420 
Q 2234 3584 2584 3584 
Q 3122 3584 3439 3221 
Q 3756 2859 3756 2241 
Q 3756 1734 3570 1259 
Q 3384 784 3041 416 
Q 2816 172 2522 40 
Q 2228 -91 1906 -91 
Q 1566 -91 1316 65 
Q 1066 222 909 531 
L 806 0 
L 231 0 
L 1178 4863 
L 1753 4863 
L 1381 2969 
z
" transform="scale(0.015625)"/>
       <path id="DejaVuSans-29" d="M 513 4856 
L 1013 4856 
Q 1481 4119 1714 3412 
Q 1947 2706 1947 2009 
Q 1947 1309 1714 600 
Q 1481 -109 1013 -844 
L 513 -844 
Q 928 -128 1133 580 
Q 1338 1288 1338 2009 
Q 1338 2731 1133 3434 
Q 928 4138 513 4856 
z
" transform="scale(0.015625)"/>
      </defs>
      <use xlink:href="#DejaVuSans-45" transform="translate(0 0.828125)"/>
      <use xlink:href="#DejaVuSans-73" transform="translate(63.183594 0.828125)"/>
      <use xlink:href="#DejaVuSans-74" transform="translate(115.283203 0.828125)"/>
      <use xlink:href="#DejaVuSans-69" transform="translate(154.492188 0.828125)"/>
      <use xlink:href="#DejaVuSans-6d" transform="translate(182.275391 0.828125)"/>
      <use xlink:href="#DejaVuSans-61" transform="translate(279.6875 0.828125)"/>
      <use xlink:href="#DejaVuSans-74" transform="translate(340.966797 0.828125)"/>
      <use xlink:href="#DejaVuSans-65" transform="translate(380.175781 0.828125)"/>
      <use xlink:href="#DejaVuSans-64" transform="translate(441.699219 0.828125)"/>
      <use xlink:href="#DejaVuSans-20" transform="translate(505.175781 0.828125)"/>
      <use xlink:href="#DejaVuSans-42" transform="translate(536.962891 0.828125)"/>
      <use xlink:href="#DejaVuSans-65" transform="translate(605.566406 0.828125)"/>
      <use xlink:href="#DejaVuSans-68" transform="translate(667.089844 0.828125)"/>
      <use xlink:href="#DejaVuSans-61" transform="translate(730.46875 0.828125)"/>
      <use xlink:href="#DejaVuSans-76" transform="translate(791.748047 0.828125)"/>
      <use xlink:href="#DejaVuSans-69" transform="translate(850.927734 0.828125)"/>
      <use xlink:href="#DejaVuSans-6f" transform="translate(878.710938 0.828125)"/>
      <use xlink:href="#DejaVuSans-75" transform="translate(939.892578 0.828125)"/>
      <use xlink:href="#DejaVuSans-72" transform="translate(1003.271484 0.828125)"/>
      <use xlink:href="#DejaVuSans-20" transform="translate(1044.384766 0.828125)"/>
      <use xlink:href="#DejaVuSans-50" transform="translate(1076.171875 0.828125)"/>
      <use xlink:href="#DejaVuSans-6f" transform="translate(1136.474609 0.828125)"/>
      <use xlink:href="#DejaVuSans-6c" transform="translate(1197.65625 0.828125)"/>
      <use xlink:href="#DejaVuSans-69" transform="translate(1225.439453 0.828125)"/>
      <use xlink:href="#DejaVuSans-63" transform="translate(1253.222656 0.828125)"/>
      <use xlink:href="#DejaVuSans-79" transform="translate(1308.203125 0.828125)"/>
      <use xlink:href="#DejaVuSans-20" transform="translate(1367.382812 0.828125)"/>
      <use xlink:href="#DejaVuSans-28" transform="translate(1399.169922 0.828125)"/>
      <use xlink:href="#STIXSizeTwoSym-Regular-302" transform="translate(1515.953613 33.609375) scale(0.614926)"/>
      <use xlink:href="#DejaVuSans-Oblique-3c0" transform="translate(1438.183594 0.828125)"/>
      <use xlink:href="#DejaVuSans-Oblique-62" transform="translate(1499.345703 -15.578125) scale(0.7)"/>
      <use xlink:href="#DejaVuSans-29" transform="translate(1546.513672 0.828125)"/>
     </g>
    </g>
   </g>
   <g id="matplotlib.axis_2">
    <g id="ytick_1">
     <g id="line2d_13">
      <path d="M 57.6 281.952 
L 414.72 281.952 
" clip-path="url(#p77b4f22513)" style="fill: none; stroke-dasharray: 2.96,1.28; stroke-dashoffset: 0; stroke: #b0b0b0; stroke-opacity: 0.3; stroke-width: 0.8"/>
     </g>
     <g id="line2d_14">
      <defs>
       <path id="m20c197768c" d="M 0 0 
L -3.5 0 
" style="stroke: #000000; stroke-width: 0.8"/>
      </defs>
      <g>
       <use xlink:href="#m20c197768c" x="57.6" y="281.952" style="stroke: #000000; stroke-width: 0.8"/>
      </g>
     </g>
     <g id="text_8">
      <!-- 0.0 -->
      <g transform="translate(35.7775 284.991375) scale(0.08 -0.08)">
       <use xlink:href="#DejaVuSans-30"/>
       <use xlink:href="#DejaVuSans-2e" transform="translate(63.623047 0)"/>
       <use xlink:href="#DejaVuSans-30" transform="translate(95.410156 0)"/>
      </g>
     </g>
    </g>
    <g id="ytick_2">
     <g id="line2d_15">
      <path d="M 57.6 233.1648 
L 414.72 233.1648 
" clip-path="url(#p77b4f22513)" style="fill: none; stroke-dasharray: 2.96,1.28; stroke-dashoffset: 0; stroke: #b0b0b0; stroke-opacity: 0.3; stroke-width: 0.8"/>
     </g>
     <g id="line2d_16">
      <g>
       <use xlink:href="#m20c197768c" x="57.6" y="233.1648" style="stroke: #000000; stroke-width: 0.8"/>
      </g>
     </g>
     <g id="text_9">
      <!-- 0.2 -->
      <g transform="translate(35.7775 236.204175) scale(0.08 -0.08)">
       <use xlink:href="#DejaVuSans-30"/>
       <use xlink:href="#DejaVuSans-2e" transform="translate(63.623047 0)"/>
       <use xlink:href="#DejaVuSans-32" transform="translate(95.410156 0)"/>
      </g>
     </g>
    </g>
    <g id="ytick_3">
     <g id="line2d_17">
      <path d="M 57.6 184.3776 
L 414.72 184.3776 
" clip-path="url(#p77b4f22513)" style="fill: none; stroke-dasharray: 2.96,1.28; stroke-dashoffset: 0; stroke: #b0b0b0; stroke-opacity: 0.3; stroke-width: 0.8"/>
     </g>
     <g id="line2d_18">
      <g>
       <use xlink:href="#m20c197768c" x="57.6" y="184.3776" style="stroke: #000000; stroke-width: 0.8"/>
      </g>
     </g>
     <g id="text_10">
      <!-- 0.4 -->
      <g transform="translate(35.7775 187.416975) scale(0.08 -0.08)">
       <use xlink:href="#DejaVuSans-30"/>
       <use xlink:href="#DejaVuSans-2e" transform="translate(63.623047 0)"/>
       <use xlink:href="#DejaVuSans-34" transform="translate(95.410156 0)"/>
      </g>
     </g>
    </g>
    <g id="ytick_4">
     <g id="line2d_19">
      <path d="M 57.6 135.5904 
L 414.72 135.5904 
" clip-path="url(#p77b4f22513)" style="fill: none; stroke-dasharray: 2.96,1.28; stroke-dashoffset: 0; stroke: #b0b0b0; stroke-opacity: 0.3; stroke-width: 0.8"/>
     </g>
     <g id="line2d_20">
      <g>
       <use xlink:href="#m20c197768c" x="57.6" y="135.5904" style="stroke: #000000; stroke-width: 0.8"/>
      </g>
     </g>
     <g id="text_11">
      <!-- 0.6 -->
      <g transform="translate(35.7775 138.629775) scale(0.08 -0.08)">
       <use xlink:href="#DejaVuSans-30"/>
       <use xlink:href="#DejaVuSans-2e" transform="translate(63.623047 0)"/>
       <use xlink:href="#DejaVuSans-36" transform="translate(95.410156 0)"/>
      </g>
     </g>
    </g>
    <g id="ytick_5">
     <g id="line2d_21">
      <path d="M 57.6 86.8032 
L 414.72 86.8032 
" clip-path="url(#p77b4f22513)" style="fill: none; stroke-dasharray: 2.96,1.28; stroke-dashoffset: 0; stroke: #b0b0b0; stroke-opacity: 0.3; stroke-width: 0.8"/>
     </g>
     <g id="line2d_22">
      <g>
       <use xlink:href="#m20c197768c" x="57.6" y="86.8032" style="stroke: #000000; stroke-width: 0.8"/>
      </g>
     </g>
     <g id="text_12">
      <!-- 0.8 -->
      <g transform="translate(35.7775 89.842575) scale(0.08 -0.08)">
       <use xlink:href="#DejaVuSans-30"/>
       <use xlink:href="#DejaVuSans-2e" transform="translate(63.623047 0)"/>
       <use xlink:href="#DejaVuSans-38" transform="translate(95.410156 0)"/>
      </g>
     </g>
    </g>
    <g id="ytick_6">
     <g id="line2d_23">
      <path d="M 57.6 38.016 
L 414.72 38.016 
" clip-path="url(#p77b4f22513)" style="fill: none; stroke-dasharray: 2.96,1.28; stroke-dashoffset: 0; stroke: #b0b0b0; stroke-opacity: 0.3; stroke-width: 0.8"/>
     </g>
     <g id="line2d_24">
      <g>
       <use xlink:href="#m20c197768c" x="57.6" y="38.016" style="stroke: #000000; stroke-width: 0.8"/>
      </g>
     </g>
     <g id="text_13">
      <!-- 1.0 -->
      <g transform="translate(35.7775 41.055375) scale(0.08 -0.08)">
       <use xlink:href="#DejaVuSans-31"/>
       <use xlink:href="#DejaVuSans-2e" transform="translate(63.623047 0)"/>
       <use xlink:href="#DejaVuSans-30" transform="translate(95.410156 0)"/>
      </g>
     </g>
    </g>
    <g id="text_14">
     <!-- Observed Frequency -->
     <g transform="translate(29.697812 211.459781) rotate(-90) scale(0.1 -0.1)">
      <defs>
       <path id="DejaVuSans-4f" d="M 2522 4238 
Q 1834 4238 1429 3725 
Q 1025 3213 1025 2328 
Q 1025 1447 1429 934 
Q 1834 422 2522 422 
Q 3209 422 3611 934 
Q 4013 1447 4013 2328 
Q 4013 3213 3611 3725 
Q 3209 4238 2522 4238 
z
M 2522 4750 
Q 3503 4750 4090 4092 
Q 4678 3434 4678 2328 
Q 4678 1225 4090 567 
Q 3503 -91 2522 -91 
Q 1538 -91 948 565 
Q 359 1222 359 2328 
Q 359 3434 948 4092 
Q 1538 4750 2522 4750 
z
" transform="scale(0.015625)"/>
       <path id="DejaVuSans-62" d="M 3116 1747 
Q 3116 2381 2855 2742 
Q 2594 3103 2138 3103 
Q 1681 3103 1420 2742 
Q 1159 2381 1159 1747 
Q 1159 1113 1420 752 
Q 1681 391 2138 391 
Q 2594 391 2855 752 
Q 3116 1113 3116 1747 
z
M 1159 2969 
Q 1341 3281 1617 3432 
Q 1894 3584 2278 3584 
Q 2916 3584 3314 3078 
Q 3713 2572 3713 1747 
Q 3713 922 3314 415 
Q 2916 -91 2278 -91 
Q 1894 -91 1617 61 
Q 1341 213 1159 525 
L 1159 0 
L 581 0 
L 581 4863 
L 1159 4863 
L 1159 2969 
z
" transform="scale(0.015625)"/>
       <path id="DejaVuSans-46" d="M 628 4666 
L 3309 4666 
L 3309 4134 
L 1259 4134 
L 1259 2759 
L 3109 2759 
L 3109 2228 
L 1259 2228 
L 1259 0 
L 628 0 
L 628 4666 
z
" transform="scale(0.015625)"/>
       <path id="DejaVuSans-71" d="M 947 1747 
Q 947 1113 1208 752 
Q 1469 391 1925 391 
Q 2381 391 2643 752 
Q 2906 1113 2906 1747 
Q 2906 2381 2643 2742 
Q 2381 3103 1925 3103 
Q 1469 3103 1208 2742 
Q 947 2381 947 1747 
z
M 2906 525 
Q 2725 213 2448 61 
Q 2172 -91 1784 -91 
Q 1150 -91 751 415 
Q 353 922 353 1747 
Q 353 2572 751 3078 
Q 1150 3584 1784 3584 
Q 2172 3584 2448 3432 
Q 2725 3281 2906 2969 
L 2906 3500 
L 3481 3500 
L 3481 -1331 
L 2906 -1331 
L 2906 525 
z
" transform="scale(0.015625)"/>
       <path id="DejaVuSans-6e" d="M 3513 2113 
L 3513 0 
L 2938 0 
L 2938 2094 
Q 2938 2591 2744 2837 
Q 2550 3084 2163 3084 
Q 1697 3084 1428 2787 
Q 1159 2491 1159 1978 
L 1159 0 
L 581 0 
L 581 3500 
L 1159 3500 
L 1159 2956 
Q 1366 3272 1645 3428 
Q 1925 3584 2291 3584 
Q 2894 3584 3203 3211 
Q 3513 2838 3513 2113 
z
" transform="scale(0.015625)"/>
      </defs>
      <use xlink:href="#DejaVuSans-4f"/>
      <use xlink:href="#DejaVuSans-62" transform="translate(78.710938 0)"/>
      <use xlink:href="#DejaVuSans-73" transform="translate(142.1875 0)"/>
      <use xlink:href="#DejaVuSans-65" transform="translate(194.287109 0)"/>
      <use xlink:href="#DejaVuSans-72" transform="translate(255.810547 0)"/>
      <use xlink:href="#DejaVuSans-76" transform="translate(296.923828 0)"/>
      <use xlink:href="#DejaVuSans-65" transform="translate(356.103516 0)"/>
      <use xlink:href="#DejaVuSans-64" transform="translate(417.626953 0)"/>
      <use xlink:href="#DejaVuSans-20" transform="translate(481.103516 0)"/>
      <use xlink:href="#DejaVuSans-46" transform="translate(512.890625 0)"/>
      <use xlink:href="#DejaVuSans-72" transform="translate(563.160156 0)"/>
      <use xlink:href="#DejaVuSans-65" transform="translate(602.023438 0)"/>
      <use xlink:href="#DejaVuSans-71" transform="translate(663.546875 0)"/>
      <use xlink:href="#DejaVuSans-75" transform="translate(727.023438 0)"/>
      <use xlink:href="#DejaVuSans-65" transform="translate(790.402344 0)"/>
      <use xlink:href="#DejaVuSans-6e" transform="translate(851.925781 0)"/>
      <use xlink:href="#DejaVuSans-63" transform="translate(915.304688 0)"/>
      <use xlink:href="#DejaVuSans-79" transform="translate(970.285156 0)"/>
     </g>
    </g>
   </g>
   <g id="line2d_25">
    <path d="M 57.6 281.952 
L 414.72 38.016 
" clip-path="url(#p77b4f22513)" style="fill: none; stroke-dasharray: 5.18,2.24; stroke-dashoffset: 0; stroke: #404040; stroke-opacity: 0.6; stroke-width: 1.4"/>
   </g>
   <g id="line2d_26">
    <path d="M 69.749878 279.723967 
L 110.693285 255.642449 
L 147.705689 231.418674 
L 185.113409 215.392195 
L 220.520863 191.415747 
L 255.564403 161.657626 
L 291.198649 133.070108 
L 327.690721 105.299554 
L 364.386808 77.641431 
L 398.699282 49.762093 
" clip-path="url(#p77b4f22513)" style="fill: none; stroke: #0571b0; stroke-width: 2; stroke-linecap: square"/>
    <defs>
     <path id="mfa74a2fb07" d="M 0 2.5 
C 0.663008 2.5 1.29895 2.236584 1.767767 1.767767 
C 2.236584 1.29895 2.5 0.663008 2.5 0 
C 2.5 -0.663008 2.236584 -1.29895 1.767767 -1.767767 
C 1.29895 -2.236584 0.663008 -2.5 0 -2.5 
C -0.663008 -2.5 -1.29895 -2.236584 -1.767767 -1.767767 
C -2.236584 -1.29895 -2.5 -0.663008 -2.5 0 
C -2.5 0.663008 -2.236584 1.29895 -1.767767 1.767767 
C -1.29895 2.236584 -0.663008 2.5 0 2.5 
z
"/>
    </defs>
    <g clip-path="url(#p77b4f22513)">
     <use xlink:href="#mfa74a2fb07" x="69.749878" y="279.723967" style="fill: #0571b0"/>
     <use xlink:href="#mfa74a2fb07" x="110.693285" y="255.642449" style="fill: #0571b0"/>
     <use xlink:href="#mfa74a2fb07" x="147.705689" y="231.418674" style="fill: #0571b0"/>
     <use xlink:href="#mfa74a2fb07" x="185.113409" y="215.392195" style="fill: #0571b0"/>
     <use xlink:href="#mfa74a2fb07" x="220.520863" y="191.415747" style="fill: #0571b0"/>
     <use xlink:href="#mfa74a2fb07" x="255.564403" y="161.657626" style="fill: #0571b0"/>
     <use xlink:href="#mfa74a2fb07" x="291.198649" y="133.070108" style="fill: #0571b0"/>
     <use xlink:href="#mfa74a2fb07" x="327.690721" y="105.299554" style="fill: #0571b0"/>
     <use xlink:href="#mfa74a2fb07" x="364.386808" y="77.641431" style="fill: #0571b0"/>
     <use xlink:href="#mfa74a2fb07" x="398.699282" y="49.762093" style="fill: #0571b0"/>
    </g>
   </g>
   <g id="patch_3">
    <path d="M 57.6 281.952 
L 57.6 38.016 
" style="fill: none; stroke: #000000; stroke-width: 0.8; stroke-linejoin: miter; stroke-linecap: square"/>
   </g>
   <g id="patch_4">
    <path d="M 414.72 281.952 
L 414.72 38.016 
" style="fill: none; stroke: #000000; stroke-width: 0.8; stroke-linejoin: miter; stroke-linecap: square"/>
   </g>
   <g id="patch_5">
    <path d="M 57.6 281.952 
L 414.72 281.952 
" style="fill: none; stroke: #000000; stroke-width: 0.8; stroke-linejoin: miter; stroke-linecap: square"/>
   </g>
   <g id="legend_1">
    <g id="line2d_27">
     <path d="M 64.8 48.49475 
L 72.8 48.49475 
L 80.8 48.49475 
" style="fill: none; stroke-dasharray: 5.18,2.24; stroke-dashoffset: 0; stroke: #404040; stroke-opacity: 0.6; stroke-width: 1.4"/>
    </g>
    <g id="text_15">
     <!-- Ideal Calibration -->
     <g transform="translate(87.2 51.29475) scale(0.08 -0.08)">
      <defs>
       <path id="DejaVuSans-49" d="M 628 4666 
L 1259 4666 
L 1259 0 
L 628 0 
L 628 4666 
z
" transform="scale(0.015625)"/>
       <path id="DejaVuSans-43" d="M 4122 4306 
L 4122 3641 
Q 3803 3938 3442 4084 
Q 3081 4231 2675 4231 
Q 1875 4231 1450 3742 
Q 1025 3253 1025 2328 
Q 1025 1406 1450 917 
Q 1875 428 2675 428 
Q 3081 428 3442 575 
Q 3803 722 4122 1019 
L 4122 359 
Q 3791 134 3420 21 
Q 3050 -91 2638 -91 
Q 1578 -91 968 557 
Q 359 1206 359 2328 
Q 359 3453 968 4101 
Q 1578 4750 2638 4750 
Q 3056 4750 3426 4639 
Q 3797 4528 4122 4306 
z
" transform="scale(0.015625)"/>
      </defs>
      <use xlink:href="#DejaVuSans-49"/>
      <use xlink:href="#DejaVuSans-64" transform="translate(29.492188 0)"/>
      <use xlink:href="#DejaVuSans-65" transform="translate(92.96875 0)"/>
      <use xlink:href="#DejaVuSans-61" transform="translate(154.492188 0)"/>
      <use xlink:href="#DejaVuSans-6c" transform="translate(215.771484 0)"/>
      <use xlink:href="#DejaVuSans-20" transform="translate(243.554688 0)"/>
      <use xlink:href="#DejaVuSans-43" transform="translate(275.341797 0)"/>
      <use xlink:href="#DejaVuSans-61" transform="translate(345.166016 0)"/>
      <use xlink:href="#DejaVuSans-6c" transform="translate(406.445312 0)"/>
      <use xlink:href="#DejaVuSans-69" transform="translate(434.228516 0)"/>
      <use xlink:href="#DejaVuSans-62" transform="translate(462.011719 0)"/>
      <use xlink:href="#DejaVuSans-72" transform="translate(525.488281 0)"/>
      <use xlink:href="#DejaVuSans-61" transform="translate(566.601562 0)"/>
      <use xlink:href="#DejaVuSans-74" transform="translate(627.880859 0)"/>
      <use xlink:href="#DejaVuSans-69" transform="translate(667.089844 0)"/>
      <use xlink:href="#DejaVuSans-6f" transform="translate(694.873047 0)"/>
      <use xlink:href="#DejaVuSans-6e" transform="translate(756.054688 0)"/>
     </g>
    </g>
    <g id="line2d_28">
     <path d="M 64.8 60.23725 
L 72.8 60.23725 
L 80.8 60.23725 
" style="fill: none; stroke: #0571b0; stroke-width: 2; stroke-linecap: square"/>
     <g>
      <use xlink:href="#mfa74a2fb07" x="72.8" y="60.23725" style="fill: #0571b0"/>
     </g>
    </g>
    <g id="text_16">
     <!-- Model Calibration -->
     <g transform="translate(87.2 63.03725) scale(0.08 -0.08)">
      <defs>
       <path id="DejaVuSans-4d" d="M 628 4666 
L 1569 4666 
L 2759 1491 
L 3956 4666 
L 4897 4666 
L 4897 0 
L 4281 0 
L 4281 4097 
L 3078 897 
L 2444 897 
L 1241 4097 
L 1241 0 
L 628 0 
L 628 4666 
z
" transform="scale(0.015625)"/>
      </defs>
      <use xlink:href="#DejaVuSans-4d"/>
      <use xlink:href="#DejaVuSans-6f" transform="translate(86.279297 0)"/>
      <use xlink:href="#DejaVuSans-64" transform="translate(147.460938 0)"/>
      <use xlink:href="#DejaVuSans-65" transform="translate(210.9375 0)"/>
      <use xlink:href="#DejaVuSans-6c" transform="translate(272.460938 0)"/>
      <use xlink:href="#DejaVuSans-20" transform="translate(300.244141 0)"/>
      <use xlink:href="#DejaVuSans-43" transform="translate(332.03125 0)"/>
      <use xlink:href="#DejaVuSans-61" transform="translate(401.855469 0)"/>
      <use xlink:href="#DejaVuSans-6c" transform="translate(463.134766 0)"/>
      <use xlink:href="#DejaVuSans-69" transform="translate(490.917969 0)"/>
      <use xlink:href="#DejaVuSans-62" transform="translate(518.701172 0)"/>
      <use xlink:href="#DejaVuSans-72" transform="translate(582.177734 0)"/>
      <use xlink:href="#DejaVuSans-61" transform="translate(623.291016 0)"/>
      <use xlink:href="#DejaVuSans-74" transform="translate(684.570312 0)"/>
      <use xlink:href="#DejaVuSans-69" transform="translate(723.779297 0)"/>
      <use xlink:href="#DejaVuSans-6f" transform="translate(751.5625 0)"/>
      <use xlink:href="#DejaVuSans-6e" transform="translate(812.744141 0)"/>
     </g>
    </g>
    <g id="patch_6">
     <path d="M 64.8 74.77975 
L 80.8 74.77975 
L 80.8 69.17975 
L 64.8 69.17975 
z
" style="fill: #92c5de; fill-opacity: 0.3; stroke: #92c5de; stroke-opacity: 0.3; stroke-width: 0.24; stroke-linejoin: miter"/>
    </g>
    <g id="text_17">
     <!-- Density -->
     <g transform="translate(87.2 74.77975) scale(0.08 -0.08)">
      <defs>
       <path id="DejaVuSans-44" d="M 1259 4147 
L 1259 519 
L 2022 519 
Q 2988 519 3436 956 
Q 3884 1394 3884 2338 
Q 3884 3275 3436 3711 
Q 2988 4147 2022 4147 
L 1259 4147 
z
M 628 4666 
L 1925 4666 
Q 3281 4666 3915 4102 
Q 4550 3538 4550 2338 
Q 4550 1131 3912 565 
Q 3275 0 1925 0 
L 628 0 
L 628 4666 
z
" transform="scale(0.015625)"/>
      </defs>
      <use xlink:href="#DejaVuSans-44"/>
      <use xlink:href="#DejaVuSans-65" transform="translate(77.001953 0)"/>
      <use xlink:href="#DejaVuSans-6e" transform="translate(138.525391 0)"/>
      <use xlink:href="#DejaVuSans-73" transform="translate(201.904297 0)"/>
      <use xlink:href="#DejaVuSans-69" transform="translate(254.003906 0)"/>
      <use xlink:href="#DejaVuSans-74" transform="translate(281.787109 0)"/>
      <use xlink:href="#DejaVuSans-79" transform="translate(320.996094 0)"/>
     </g>
    </g>
   </g>
  </g>
  <g id="axes_2">
   <g id="FillBetweenPolyCollection_1">
    <defs>
     <path id="me0bc77eae6" d="M 57.95712 -45.936 
L 57.95712 -45.963202 
L 58.67136 -46.869454 
L 59.3856 -48.285675 
L 60.09984 -48.866617 
L 60.81408 -48.975015 
L 61.52832 -48.916321 
L 62.24256 -48.728021 
L 62.9568 -48.532317 
L 63.67104 -48.325627 
L 64.38528 -48.174105 
L 65.09952 -48.007601 
L 65.81376 -47.847502 
L 66.528 -47.710022 
L 67.24224 -47.59005 
L 67.95648 -47.497985 
L 68.67072 -47.382008 
L 69.38496 -47.282482 
L 70.0992 -47.21668 
L 70.81344 -47.124556 
L 71.52768 -47.074088 
L 72.24192 -47.014161 
L 72.95616 -46.935081 
L 73.6704 -46.902767 
L 74.38464 -46.852828 
L 75.09888 -46.794604 
L 75.81312 -46.763877 
L 76.52736 -46.721223 
L 77.2416 -46.689849 
L 77.95584 -46.676689 
L 78.67008 -46.62669 
L 79.38432 -46.608066 
L 80.09856 -46.581863 
L 80.8128 -46.550254 
L 81.52704 -46.540971 
L 82.24128 -46.51982 
L 82.95552 -46.507717 
L 83.66976 -46.483805 
L 84.384 -46.470527 
L 85.09824 -46.456074 
L 85.81248 -46.439565 
L 86.52672 -46.419002 
L 87.24096 -46.412598 
L 87.9552 -46.405019 
L 88.66944 -46.394502 
L 89.38368 -46.384984 
L 90.09792 -46.373116 
L 90.81216 -46.361013 
L 91.5264 -46.357018 
L 92.24064 -46.344563 
L 92.95488 -46.338864 
L 93.66912 -46.328053 
L 94.38336 -46.32917 
L 95.0976 -46.3089 
L 95.81184 -46.306374 
L 96.52608 -46.30326 
L 97.24032 -46.291803 
L 97.95456 -46.292743 
L 98.6688 -46.278584 
L 99.38304 -46.264248 
L 100.09728 -46.267597 
L 100.81152 -46.257022 
L 101.52576 -46.257668 
L 102.24 -46.248327 
L 102.95424 -46.246094 
L 103.66848 -46.240454 
L 104.38272 -46.243861 
L 105.09696 -46.240924 
L 105.8112 -46.231112 
L 106.52544 -46.229232 
L 107.23968 -46.228645 
L 107.95392 -46.225061 
L 108.66816 -46.224767 
L 109.3824 -46.21942 
L 110.09664 -46.218774 
L 110.81088 -46.21942 
L 111.52512 -46.219832 
L 112.23936 -46.214133 
L 112.9536 -46.224414 
L 113.66784 -46.233815 
L 114.38208 -46.22935 
L 115.09632 -46.246035 
L 115.81056 -46.269184 
L 116.5248 -46.245448 
L 117.23904 -46.276998 
L 117.95328 -46.281345 
L 118.66752 -46.281228 
L 119.38176 -46.282579 
L 120.096 -46.306726 
L 120.81024 -46.26842 
L 121.52448 -46.249325 
L 122.23872 -46.268479 
L 122.95296 -46.244449 
L 123.6672 -46.21472 
L 124.38144 -46.214015 
L 125.09568 -46.21613 
L 125.80992 -46.223944 
L 126.52416 -46.229761 
L 127.2384 -46.234402 
L 127.95264 -46.234226 
L 128.66688 -46.256611 
L 129.38112 -46.228703 
L 130.09536 -46.239455 
L 130.8096 -46.229585 
L 131.52384 -46.231465 
L 132.23808 -46.249619 
L 132.95232 -46.28346 
L 133.66656 -46.32206 
L 134.3808 -46.334457 
L 135.09504 -46.308019 
L 135.80928 -46.2844 
L 136.52352 -46.285458 
L 137.23776 -46.293566 
L 137.952 -46.34468 
L 138.66624 -46.330756 
L 139.38048 -46.289042 
L 140.09472 -46.274001 
L 140.80896 -46.260018 
L 141.5232 -46.262721 
L 142.23744 -46.234285 
L 142.95168 -46.285223 
L 143.66592 -46.263896 
L 144.38016 -46.269301 
L 145.0944 -46.298736 
L 145.80864 -46.304376 
L 146.52288 -46.312073 
L 147.23712 -46.293801 
L 147.95136 -46.28722 
L 148.6656 -46.308136 
L 149.37984 -46.347324 
L 150.09408 -46.31689 
L 150.80832 -46.318712 
L 151.52256 -46.315774 
L 152.2368 -46.362129 
L 152.95104 -46.342389 
L 153.66528 -46.318535 
L 154.37952 -46.342389 
L 155.09376 -46.378286 
L 155.808 -46.347441 
L 156.52224 -46.347911 
L 157.23648 -46.332577 
L 157.95072 -46.335045 
L 158.66496 -46.328641 
L 159.3792 -46.317243 
L 160.09344 -46.355667 
L 160.80768 -46.34703 
L 161.52192 -46.353023 
L 162.23616 -46.359956 
L 162.9504 -46.337219 
L 163.66464 -46.354374 
L 164.37888 -46.359603 
L 165.09312 -46.383809 
L 165.80736 -46.412598 
L 166.5216 -46.382869 
L 167.23584 -46.4059 
L 167.95008 -46.420882 
L 168.66432 -46.403432 
L 169.37856 -46.400788 
L 170.0928 -46.396617 
L 170.80704 -46.390683 
L 171.52128 -46.395736 
L 172.23552 -46.401258 
L 172.94976 -46.424407 
L 173.664 -46.424407 
L 174.37824 -46.429107 
L 175.09248 -46.442796 
L 175.80672 -46.433161 
L 176.52096 -46.457837 
L 177.2352 -46.458894 
L 177.94944 -46.474346 
L 178.66368 -46.485215 
L 179.37792 -46.501725 
L 180.09216 -46.499903 
L 180.8064 -46.496026 
L 181.52064 -46.528751 
L 182.23488 -46.53492 
L 182.94912 -46.542087 
L 183.66336 -46.620874 
L 184.3776 -46.615116 
L 185.09184 -46.598078 
L 185.80608 -46.57211 
L 186.52032 -46.604482 
L 187.23456 -46.612884 
L 187.9488 -46.634681 
L 188.66304 -46.642142 
L 189.37728 -46.659533 
L 190.09152 -46.742021 
L 190.80576 -46.689908 
L 191.52 -46.702716 
L 192.23424 -46.777801 
L 192.94848 -46.681859 
L 193.66272 -46.794134 
L 194.37696 -46.78679 
L 195.0912 -46.826037 
L 195.80544 -46.778212 
L 196.51968 -46.834438 
L 197.23392 -46.84848 
L 197.94816 -46.840313 
L 198.6624 -46.827917 
L 199.37664 -46.863285 
L 200.09088 -46.916809 
L 200.80512 -46.899477 
L 201.51936 -46.91957 
L 202.2336 -46.887491 
L 202.94784 -46.947947 
L 203.66208 -46.940192 
L 204.37632 -47.112277 
L 205.09056 -46.97703 
L 205.8048 -47.067508 
L 206.51904 -47.078847 
L 207.23328 -47.083782 
L 207.94752 -47.085192 
L 208.66176 -47.100233 
L 209.376 -47.123146 
L 210.09024 -47.149644 
L 210.80448 -47.206516 
L 211.51872 -47.138011 
L 212.23296 -47.281425 
L 212.9472 -47.258394 
L 213.66144 -47.240709 
L 214.37568 -47.320671 
L 215.08992 -47.401044 
L 215.80416 -47.378659 
L 216.5184 -47.352339 
L 217.23264 -47.536762 
L 217.94688 -47.495988 
L 218.66112 -47.53823 
L 219.37536 -47.634173 
L 220.0896 -47.53776 
L 220.80384 -47.592635 
L 221.51808 -47.70585 
L 222.23232 -47.972703 
L 222.94656 -47.578182 
L 223.6608 -47.635113 
L 224.37504 -47.617487 
L 225.08928 -47.722712 
L 225.80352 -47.587582 
L 226.51776 -47.633585 
L 227.232 -47.72236 
L 227.94624 -47.739104 
L 228.66048 -47.717659 
L 229.37472 -47.805376 
L 230.08896 -47.76331 
L 230.8032 -47.780701 
L 231.51744 -47.763897 
L 232.23168 -47.760725 
L 232.94592 -47.893622 
L 233.66016 -47.881226 
L 234.3744 -47.948027 
L 235.08864 -47.987919 
L 235.80288 -48.121639 
L 236.51712 -48.122051 
L 237.23136 -48.138208 
L 237.9456 -48.124342 
L 238.65984 -48.282327 
L 239.37408 -48.257239 
L 240.08832 -48.116117 
L 240.80256 -48.346836 
L 241.5168 -48.363757 
L 242.23104 -48.51757 
L 242.94528 -48.212823 
L 243.65952 -48.268285 
L 244.37376 -48.401123 
L 245.088 -48.300951 
L 245.80224 -48.498711 
L 246.51648 -48.496184 
L 247.23072 -48.474916 
L 247.94496 -48.627319 
L 248.6592 -48.435435 
L 249.37344 -48.345838 
L 250.08768 -48.432145 
L 250.80192 -48.804222 
L 251.51616 -48.466397 
L 252.2304 -48.752403 
L 252.94464 -48.783248 
L 253.65888 -48.514398 
L 254.37312 -48.568626 
L 255.08736 -48.823023 
L 255.8016 -48.701053 
L 256.51584 -48.752755 
L 257.23008 -48.862328 
L 257.94432 -48.893584 
L 258.65856 -49.080534 
L 259.3728 -48.994344 
L 260.08704 -48.949869 
L 260.80128 -48.914089 
L 261.51552 -48.954745 
L 262.22976 -49.001453 
L 262.944 -49.287517 
L 263.65824 -49.209436 
L 264.37248 -49.260785 
L 265.08672 -49.33164 
L 265.80096 -49.267365 
L 266.5152 -49.251972 
L 267.22944 -49.454021 
L 267.94368 -49.503784 
L 268.65792 -49.497791 
L 269.37216 -49.43099 
L 270.0864 -49.550845 
L 270.80064 -49.429169 
L 271.51488 -49.515182 
L 272.22912 -49.564945 
L 272.94336 -49.69467 
L 273.6576 -49.82322 
L 274.37184 -49.82181 
L 275.08608 -49.750485 
L 275.80032 -49.824982 
L 276.51456 -49.827626 
L 277.2288 -49.859822 
L 277.94304 -49.885908 
L 278.65728 -50.022096 
L 279.37152 -49.893664 
L 280.08576 -49.971451 
L 280.8 -49.994776 
L 281.51424 -50.011638 
L 282.22848 -50.113925 
L 282.94272 -50.109108 
L 283.65696 -50.181138 
L 284.3712 -50.269325 
L 285.08544 -50.20082 
L 285.79968 -50.391118 
L 286.51392 -50.391177 
L 287.22816 -50.337066 
L 287.9424 -50.424313 
L 288.65664 -50.432245 
L 289.37088 -50.47014 
L 290.08512 -50.68576 
L 290.79936 -50.740224 
L 291.5136 -50.8374 
L 292.22784 -50.967829 
L 292.94208 -50.973117 
L 293.65632 -51.065064 
L 294.37056 -50.952965 
L 295.0848 -51.093089 
L 295.79904 -51.106955 
L 296.51328 -51.112066 
L 297.22752 -51.31482 
L 297.94176 -51.289615 
L 298.656 -51.286207 
L 299.37024 -51.204366 
L 300.08448 -51.154779 
L 300.79872 -51.410292 
L 301.51296 -51.311001 
L 302.2272 -51.43579 
L 302.94144 -51.373513 
L 303.65568 -51.563224 
L 304.36992 -51.709399 
L 305.08416 -51.786071 
L 305.7984 -51.793004 
L 306.51264 -51.793885 
L 307.22688 -51.941529 
L 307.94112 -52.027836 
L 308.65536 -52.308613 
L 309.3696 -52.341925 
L 310.08384 -52.315898 
L 310.79808 -52.427057 
L 311.51232 -52.422827 
L 312.22656 -52.536689 
L 312.9408 -52.737856 
L 313.65504 -52.857475 
L 314.36928 -52.809357 
L 315.08352 -53.144891 
L 315.79776 -53.112225 
L 316.512 -53.173327 
L 317.22624 -53.299233 
L 317.94048 -53.506804 
L 318.65472 -53.513267 
L 319.36896 -53.727419 
L 320.0832 -53.734645 
L 320.79744 -53.834641 
L 321.51168 -53.933463 
L 322.22592 -54.040979 
L 322.94016 -54.185392 
L 323.6544 -54.366466 
L 324.36864 -54.41288 
L 325.08288 -54.699885 
L 325.79712 -54.686372 
L 326.51136 -55.050165 
L 327.2256 -55.07537 
L 327.93984 -55.192698 
L 328.65408 -55.505201 
L 329.36832 -55.764239 
L 330.08256 -55.844847 
L 330.7968 -55.977333 
L 331.51104 -56.399996 
L 332.22528 -56.326732 
L 332.93952 -56.575136 
L 333.65376 -56.523552 
L 334.368 -56.724073 
L 335.08224 -56.820544 
L 335.79648 -57.125938 
L 336.51072 -57.147911 
L 337.22496 -57.250669 
L 337.9392 -57.33868 
L 338.65344 -57.706292 
L 339.36768 -57.705176 
L 340.08192 -57.907401 
L 340.79616 -58.089474 
L 341.5104 -58.331532 
L 342.22464 -58.578527 
L 342.93888 -58.796673 
L 343.65312 -58.910418 
L 344.36736 -59.067932 
L 345.0816 -59.21775 
L 345.79584 -59.586773 
L 346.51008 -59.691586 
L 347.22432 -59.981293 
L 347.93856 -60.144566 
L 348.6528 -60.331397 
L 349.36704 -60.629036 
L 350.08128 -60.849122 
L 350.79552 -61.074965 
L 351.50976 -61.336236 
L 352.224 -61.688044 
L 352.93824 -61.801788 
L 353.65248 -62.207589 
L 354.36672 -62.633719 
L 355.08096 -63.01972 
L 355.7952 -63.349496 
L 356.50944 -63.668638 
L 357.22368 -64.116447 
L 357.93792 -64.350398 
L 358.65216 -64.844563 
L 359.3664 -65.46763 
L 360.08064 -65.722966 
L 360.79488 -66.075009 
L 361.50912 -66.604249 
L 362.22336 -66.983083 
L 362.9376 -67.359684 
L 363.65184 -67.82459 
L 364.36608 -68.314055 
L 365.08032 -68.672913 
L 365.79456 -69.213668 
L 366.5088 -69.690207 
L 367.22304 -70.250526 
L 367.93728 -70.799918 
L 368.65152 -71.351248 
L 369.36576 -72.104509 
L 370.08 -72.65866 
L 370.79424 -73.446761 
L 371.50848 -74.193737 
L 372.22272 -75.023846 
L 372.93696 -75.675466 
L 373.6512 -76.49312 
L 374.36544 -77.424283 
L 375.07968 -78.474302 
L 375.79392 -79.667735 
L 376.50816 -80.602188 
L 377.2224 -81.380126 
L 377.93664 -82.88142 
L 378.65088 -83.960991 
L 379.36512 -85.042207 
L 380.07936 -86.131413 
L 380.7936 -87.379956 
L 381.50784 -88.611812 
L 382.22208 -90.245064 
L 382.93632 -91.650416 
L 383.65056 -93.381196 
L 384.3648 -95.470482 
L 385.07904 -97.268827 
L 385.79328 -99.331733 
L 386.50752 -101.684581 
L 387.22176 -103.669288 
L 387.936 -106.028305 
L 388.65024 -108.391024 
L 389.36448 -111.141448 
L 390.07872 -113.936171 
L 390.79296 -117.037169 
L 391.5072 -120.407722 
L 392.22144 -123.622523 
L 392.93568 -127.792635 
L 393.64992 -131.766044 
L 394.36416 -136.337961 
L 395.0784 -141.041483 
L 395.79264 -146.303269 
L 396.50688 -152.360852 
L 397.22112 -158.280838 
L 397.93536 -164.685119 
L 398.6496 -171.766635 
L 399.36384 -179.699353 
L 400.07808 -187.977239 
L 400.79232 -196.795881 
L 401.50656 -206.71501 
L 402.2208 -216.747765 
L 402.93504 -229.419197 
L 403.64928 -241.061997 
L 404.36352 -253.919263 
L 405.07776 -263.131662 
L 405.792 -267.696 
L 406.50624 -266.18178 
L 407.22048 -255.091016 
L 407.93472 -223.796556 
L 408.64896 -174.90876 
L 409.3632 -119.386786 
L 410.07744 -72.032538 
L 410.79168 -49.741672 
L 411.50592 -46.039991 
L 412.22016 -45.936 
L 412.9344 -45.936 
L 413.64864 -45.936 
L 414.36288 -45.936 
L 414.36288 -45.936 
L 414.36288 -45.936 
L 413.64864 -45.936 
L 412.9344 -45.936 
L 412.22016 -45.936 
L 411.50592 -45.936 
L 410.79168 -45.936 
L 410.07744 -45.936 
L 409.3632 -45.936 
L 408.64896 -45.936 
L 407.93472 -45.936 
L 407.22048 -45.936 
L 406.50624 -45.936 
L 405.792 -45.936 
L 405.07776 -45.936 
L 404.36352 -45.936 
L 403.64928 -45.936 
L 402.93504 -45.936 
L 402.2208 -45.936 
L 401.50656 -45.936 
L 400.79232 -45.936 
L 400.07808 -45.936 
L 399.36384 -45.936 
L 398.6496 -45.936 
L 397.93536 -45.936 
L 397.22112 -45.936 
L 396.50688 -45.936 
L 395.79264 -45.936 
L 395.0784 -45.936 
L 394.36416 -45.936 
L 393.64992 -45.936 
L 392.93568 -45.936 
L 392.22144 -45.936 
L 391.5072 -45.936 
L 390.79296 -45.936 
L 390.07872 -45.936 
L 389.36448 -45.936 
L 388.65024 -45.936 
L 387.936 -45.936 
L 387.22176 -45.936 
L 386.50752 -45.936 
L 385.79328 -45.936 
L 385.07904 -45.936 
L 384.3648 -45.936 
L 383.65056 -45.936 
L 382.93632 -45.936 
L 382.22208 -45.936 
L 381.50784 -45.936 
L 380.7936 -45.936 
L 380.07936 -45.936 
L 379.36512 -45.936 
L 378.65088 -45.936 
L 377.93664 -45.936 
L 377.2224 -45.936 
L 376.50816 -45.936 
L 375.79392 -45.936 
L 375.07968 -45.936 
L 374.36544 -45.936 
L 373.6512 -45.936 
L 372.93696 -45.936 
L 372.22272 -45.936 
L 371.50848 -45.936 
L 370.79424 -45.936 
L 370.08 -45.936 
L 369.36576 -45.936 
L 368.65152 -45.936 
L 367.93728 -45.936 
L 367.22304 -45.936 
L 366.5088 -45.936 
L 365.79456 -45.936 
L 365.08032 -45.936 
L 364.36608 -45.936 
L 363.65184 -45.936 
L 362.9376 -45.936 
L 362.22336 -45.936 
L 361.50912 -45.936 
L 360.79488 -45.936 
L 360.08064 -45.936 
L 359.3664 -45.936 
L 358.65216 -45.936 
L 357.93792 -45.936 
L 357.22368 -45.936 
L 356.50944 -45.936 
L 355.7952 -45.936 
L 355.08096 -45.936 
L 354.36672 -45.936 
L 353.65248 -45.936 
L 352.93824 -45.936 
L 352.224 -45.936 
L 351.50976 -45.936 
L 350.79552 -45.936 
L 350.08128 -45.936 
L 349.36704 -45.936 
L 348.6528 -45.936 
L 347.93856 -45.936 
L 347.22432 -45.936 
L 346.51008 -45.936 
L 345.79584 -45.936 
L 345.0816 -45.936 
L 344.36736 -45.936 
L 343.65312 -45.936 
L 342.93888 -45.936 
L 342.22464 -45.936 
L 341.5104 -45.936 
L 340.79616 -45.936 
L 340.08192 -45.936 
L 339.36768 -45.936 
L 338.65344 -45.936 
L 337.9392 -45.936 
L 337.22496 -45.936 
L 336.51072 -45.936 
L 335.79648 -45.936 
L 335.08224 -45.936 
L 334.368 -45.936 
L 333.65376 -45.936 
L 332.93952 -45.936 
L 332.22528 -45.936 
L 331.51104 -45.936 
L 330.7968 -45.936 
L 330.08256 -45.936 
L 329.36832 -45.936 
L 328.65408 -45.936 
L 327.93984 -45.936 
L 327.2256 -45.936 
L 326.51136 -45.936 
L 325.79712 -45.936 
L 325.08288 -45.936 
L 324.36864 -45.936 
L 323.6544 -45.936 
L 322.94016 -45.936 
L 322.22592 -45.936 
L 321.51168 -45.936 
L 320.79744 -45.936 
L 320.0832 -45.936 
L 319.36896 -45.936 
L 318.65472 -45.936 
L 317.94048 -45.936 
L 317.22624 -45.936 
L 316.512 -45.936 
L 315.79776 -45.936 
L 315.08352 -45.936 
L 314.36928 -45.936 
L 313.65504 -45.936 
L 312.9408 -45.936 
L 312.22656 -45.936 
L 311.51232 -45.936 
L 310.79808 -45.936 
L 310.08384 -45.936 
L 309.3696 -45.936 
L 308.65536 -45.936 
L 307.94112 -45.936 
L 307.22688 -45.936 
L 306.51264 -45.936 
L 305.7984 -45.936 
L 305.08416 -45.936 
L 304.36992 -45.936 
L 303.65568 -45.936 
L 302.94144 -45.936 
L 302.2272 -45.936 
L 301.51296 -45.936 
L 300.79872 -45.936 
L 300.08448 -45.936 
L 299.37024 -45.936 
L 298.656 -45.936 
L 297.94176 -45.936 
L 297.22752 -45.936 
L 296.51328 -45.936 
L 295.79904 -45.936 
L 295.0848 -45.936 
L 294.37056 -45.936 
L 293.65632 -45.936 
L 292.94208 -45.936 
L 292.22784 -45.936 
L 291.5136 -45.936 
L 290.79936 -45.936 
L 290.08512 -45.936 
L 289.37088 -45.936 
L 288.65664 -45.936 
L 287.9424 -45.936 
L 287.22816 -45.936 
L 286.51392 -45.936 
L 285.79968 -45.936 
L 285.08544 -45.936 
L 284.3712 -45.936 
L 283.65696 -45.936 
L 282.94272 -45.936 
L 282.22848 -45.936 
L 281.51424 -45.936 
L 280.8 -45.936 
L 280.08576 -45.936 
L 279.37152 -45.936 
L 278.65728 -45.936 
L 277.94304 -45.936 
L 277.2288 -45.936 
L 276.51456 -45.936 
L 275.80032 -45.936 
L 275.08608 -45.936 
L 274.37184 -45.936 
L 273.6576 -45.936 
L 272.94336 -45.936 
L 272.22912 -45.936 
L 271.51488 -45.936 
L 270.80064 -45.936 
L 270.0864 -45.936 
L 269.37216 -45.936 
L 268.65792 -45.936 
L 267.94368 -45.936 
L 267.22944 -45.936 
L 266.5152 -45.936 
L 265.80096 -45.936 
L 265.08672 -45.936 
L 264.37248 -45.936 
L 263.65824 -45.936 
L 262.944 -45.936 
L 262.22976 -45.936 
L 261.51552 -45.936 
L 260.80128 -45.936 
L 260.08704 -45.936 
L 259.3728 -45.936 
L 258.65856 -45.936 
L 257.94432 -45.936 
L 257.23008 -45.936 
L 256.51584 -45.936 
L 255.8016 -45.936 
L 255.08736 -45.936 
L 254.37312 -45.936 
L 253.65888 -45.936 
L 252.94464 -45.936 
L 252.2304 -45.936 
L 251.51616 -45.936 
L 250.80192 -45.936 
L 250.08768 -45.936 
L 249.37344 -45.936 
L 248.6592 -45.936 
L 247.94496 -45.936 
L 247.23072 -45.936 
L 246.51648 -45.936 
L 245.80224 -45.936 
L 245.088 -45.936 
L 244.37376 -45.936 
L 243.65952 -45.936 
L 242.94528 -45.936 
L 242.23104 -45.936 
L 241.5168 -45.936 
L 240.80256 -45.936 
L 240.08832 -45.936 
L 239.37408 -45.936 
L 238.65984 -45.936 
L 237.9456 -45.936 
L 237.23136 -45.936 
L 236.51712 -45.936 
L 235.80288 -45.936 
L 235.08864 -45.936 
L 234.3744 -45.936 
L 233.66016 -45.936 
L 232.94592 -45.936 
L 232.23168 -45.936 
L 231.51744 -45.936 
L 230.8032 -45.936 
L 230.08896 -45.936 
L 229.37472 -45.936 
L 228.66048 -45.936 
L 227.94624 -45.936 
L 227.232 -45.936 
L 226.51776 -45.936 
L 225.80352 -45.936 
L 225.08928 -45.936 
L 224.37504 -45.936 
L 223.6608 -45.936 
L 222.94656 -45.936 
L 222.23232 -45.936 
L 221.51808 -45.936 
L 220.80384 -45.936 
L 220.0896 -45.936 
L 219.37536 -45.936 
L 218.66112 -45.936 
L 217.94688 -45.936 
L 217.23264 -45.936 
L 216.5184 -45.936 
L 215.80416 -45.936 
L 215.08992 -45.936 
L 214.37568 -45.936 
L 213.66144 -45.936 
L 212.9472 -45.936 
L 212.23296 -45.936 
L 211.51872 -45.936 
L 210.80448 -45.936 
L 210.09024 -45.936 
L 209.376 -45.936 
L 208.66176 -45.936 
L 207.94752 -45.936 
L 207.23328 -45.936 
L 206.51904 -45.936 
L 205.8048 -45.936 
L 205.09056 -45.936 
L 204.37632 -45.936 
L 203.66208 -45.936 
L 202.94784 -45.936 
L 202.2336 -45.936 
L 201.51936 -45.936 
L 200.80512 -45.936 
L 200.09088 -45.936 
L 199.37664 -45.936 
L 198.6624 -45.936 
L 197.94816 -45.936 
L 197.23392 -45.936 
L 196.51968 -45.936 
L 195.80544 -45.936 
L 195.0912 -45.936 
L 194.37696 -45.936 
L 193.66272 -45.936 
L 192.94848 -45.936 
L 192.23424 -45.936 
L 191.52 -45.936 
L 190.80576 -45.936 
L 190.09152 -45.936 
L 189.37728 -45.936 
L 188.66304 -45.936 
L 187.9488 -45.936 
L 187.23456 -45.936 
L 186.52032 -45.936 
L 185.80608 -45.936 
L 185.09184 -45.936 
L 184.3776 -45.936 
L 183.66336 -45.936 
L 182.94912 -45.936 
L 182.23488 -45.936 
L 181.52064 -45.936 
L 180.8064 -45.936 
L 180.09216 -45.936 
L 179.37792 -45.936 
L 178.66368 -45.936 
L 177.94944 -45.936 
L 177.2352 -45.936 
L 176.52096 -45.936 
L 175.80672 -45.936 
L 175.09248 -45.936 
L 174.37824 -45.936 
L 173.664 -45.936 
L 172.94976 -45.936 
L 172.23552 -45.936 
L 171.52128 -45.936 
L 170.80704 -45.936 
L 170.0928 -45.936 
L 169.37856 -45.936 
L 168.66432 -45.936 
L 167.95008 -45.936 
L 167.23584 -45.936 
L 166.5216 -45.936 
L 165.80736 -45.936 
L 165.09312 -45.936 
L 164.37888 -45.936 
L 163.66464 -45.936 
L 162.9504 -45.936 
L 162.23616 -45.936 
L 161.52192 -45.936 
L 160.80768 -45.936 
L 160.09344 -45.936 
L 159.3792 -45.936 
L 158.66496 -45.936 
L 157.95072 -45.936 
L 157.23648 -45.936 
L 156.52224 -45.936 
L 155.808 -45.936 
L 155.09376 -45.936 
L 154.37952 -45.936 
L 153.66528 -45.936 
L 152.95104 -45.936 
L 152.2368 -45.936 
L 151.52256 -45.936 
L 150.80832 -45.936 
L 150.09408 -45.936 
L 149.37984 -45.936 
L 148.6656 -45.936 
L 147.95136 -45.936 
L 147.23712 -45.936 
L 146.52288 -45.936 
L 145.80864 -45.936 
L 145.0944 -45.936 
L 144.38016 -45.936 
L 143.66592 -45.936 
L 142.95168 -45.936 
L 142.23744 -45.936 
L 141.5232 -45.936 
L 140.80896 -45.936 
L 140.09472 -45.936 
L 139.38048 -45.936 
L 138.66624 -45.936 
L 137.952 -45.936 
L 137.23776 -45.936 
L 136.52352 -45.936 
L 135.80928 -45.936 
L 135.09504 -45.936 
L 134.3808 -45.936 
L 133.66656 -45.936 
L 132.95232 -45.936 
L 132.23808 -45.936 
L 131.52384 -45.936 
L 130.8096 -45.936 
L 130.09536 -45.936 
L 129.38112 -45.936 
L 128.66688 -45.936 
L 127.95264 -45.936 
L 127.2384 -45.936 
L 126.52416 -45.936 
L 125.80992 -45.936 
L 125.09568 -45.936 
L 124.38144 -45.936 
L 123.6672 -45.936 
L 122.95296 -45.936 
L 122.23872 -45.936 
L 121.52448 -45.936 
L 120.81024 -45.936 
L 120.096 -45.936 
L 119.38176 -45.936 
L 118.66752 -45.936 
L 117.95328 -45.936 
L 117.23904 -45.936 
L 116.5248 -45.936 
L 115.81056 -45.936 
L 115.09632 -45.936 
L 114.38208 -45.936 
L 113.66784 -45.936 
L 112.9536 -45.936 
L 112.23936 -45.936 
L 111.52512 -45.936 
L 110.81088 -45.936 
L 110.09664 -45.936 
L 109.3824 -45.936 
L 108.66816 -45.936 
L 107.95392 -45.936 
L 107.23968 -45.936 
L 106.52544 -45.936 
L 105.8112 -45.936 
L 105.09696 -45.936 
L 104.38272 -45.936 
L 103.66848 -45.936 
L 102.95424 -45.936 
L 102.24 -45.936 
L 101.52576 -45.936 
L 100.81152 -45.936 
L 100.09728 -45.936 
L 99.38304 -45.936 
L 98.6688 -45.936 
L 97.95456 -45.936 
L 97.24032 -45.936 
L 96.52608 -45.936 
L 95.81184 -45.936 
L 95.0976 -45.936 
L 94.38336 -45.936 
L 93.66912 -45.936 
L 92.95488 -45.936 
L 92.24064 -45.936 
L 91.5264 -45.936 
L 90.81216 -45.936 
L 90.09792 -45.936 
L 89.38368 -45.936 
L 88.66944 -45.936 
L 87.9552 -45.936 
L 87.24096 -45.936 
L 86.52672 -45.936 
L 85.81248 -45.936 
L 85.09824 -45.936 
L 84.384 -45.936 
L 83.66976 -45.936 
L 82.95552 -45.936 
L 82.24128 -45.936 
L 81.52704 -45.936 
L 80.8128 -45.936 
L 80.09856 -45.936 
L 79.38432 -45.936 
L 78.67008 -45.936 
L 77.95584 -45.936 
L 77.2416 -45.936 
L 76.52736 -45.936 
L 75.81312 -45.936 
L 75.09888 -45.936 
L 74.38464 -45.936 
L 73.6704 -45.936 
L 72.95616 -45.936 
L 72.24192 -45.936 
L 71.52768 -45.936 
L 70.81344 -45.936 
L 70.0992 -45.936 
L 69.38496 -45.936 
L 68.67072 -45.936 
L 67.95648 -45.936 
L 67.24224 -45.936 
L 66.528 -45.936 
L 65.81376 -45.936 
L 65.09952 -45.936 
L 64.38528 -45.936 
L 63.67104 -45.936 
L 62.9568 -45.936 
L 62.24256 -45.936 
L 61.52832 -45.936 
L 60.81408 -45.936 
L 60.09984 -45.936 
L 59.3856 -45.936 
L 58.67136 -45.936 
L 57.95712 -45.936 
z
" style="stroke: #92c5de; stroke-opacity: 0.3; stroke-width: 0.24"/>
    </defs>
    <g clip-path="url(#p77b4f22513)">
     <use xlink:href="#me0bc77eae6" x="0" y="316.8" style="fill: #92c5de; fill-opacity: 0.3; stroke: #92c5de; stroke-opacity: 0.3; stroke-width: 0.24"/>
    </g>
   </g>
   <g id="matplotlib.axis_3">
    <g id="ytick_7">
     <g id="line2d_29">
      <defs>
       <path id="m22e9954805" d="M 0 0 
L 3.5 0 
" style="stroke: #000000; stroke-width: 0.8"/>
      </defs>
      <g>
       <use xlink:href="#m22e9954805" x="414.72" y="270.864" style="stroke: #000000; stroke-width: 0.8"/>
      </g>
     </g>
     <g id="text_18">
      <!-- 0.0 -->
      <g transform="translate(423.82 273.903375) scale(0.08 -0.08)">
       <use xlink:href="#DejaVuSans-30"/>
       <use xlink:href="#DejaVuSans-2e" transform="translate(63.623047 0)"/>
       <use xlink:href="#DejaVuSans-30" transform="translate(95.410156 0)"/>
      </g>
     </g>
    </g>
    <g id="ytick_8">
     <g id="line2d_30">
      <g>
       <use xlink:href="#m22e9954805" x="414.72" y="237.302304" style="stroke: #000000; stroke-width: 0.8"/>
      </g>
     </g>
     <g id="text_19">
      <!-- 2.5 -->
      <g transform="translate(423.82 240.341679) scale(0.08 -0.08)">
       <defs>
        <path id="DejaVuSans-35" d="M 691 4666 
L 3169 4666 
L 3169 4134 
L 1269 4134 
L 1269 2991 
Q 1406 3038 1543 3061 
Q 1681 3084 1819 3084 
Q 2600 3084 3056 2656 
Q 3513 2228 3513 1497 
Q 3513 744 3044 326 
Q 2575 -91 1722 -91 
Q 1428 -91 1123 -41 
Q 819 9 494 109 
L 494 744 
Q 775 591 1075 516 
Q 1375 441 1709 441 
Q 2250 441 2565 725 
Q 2881 1009 2881 1497 
Q 2881 1984 2565 2268 
Q 2250 2553 1709 2553 
Q 1456 2553 1204 2497 
Q 953 2441 691 2322 
L 691 4666 
z
" transform="scale(0.015625)"/>
       </defs>
       <use xlink:href="#DejaVuSans-32"/>
       <use xlink:href="#DejaVuSans-2e" transform="translate(63.623047 0)"/>
       <use xlink:href="#DejaVuSans-35" transform="translate(95.410156 0)"/>
      </g>
     </g>
    </g>
    <g id="ytick_9">
     <g id="line2d_31">
      <g>
       <use xlink:href="#m22e9954805" x="414.72" y="203.740608" style="stroke: #000000; stroke-width: 0.8"/>
      </g>
     </g>
     <g id="text_20">
      <!-- 5.0 -->
      <g transform="translate(423.82 206.779983) scale(0.08 -0.08)">
       <use xlink:href="#DejaVuSans-35"/>
       <use xlink:href="#DejaVuSans-2e" transform="translate(63.623047 0)"/>
       <use xlink:href="#DejaVuSans-30" transform="translate(95.410156 0)"/>
      </g>
     </g>
    </g>
    <g id="ytick_10">
     <g id="line2d_32">
      <g>
       <use xlink:href="#m22e9954805" x="414.72" y="170.178913" style="stroke: #000000; stroke-width: 0.8"/>
      </g>
     </g>
     <g id="text_21">
      <!-- 7.5 -->
      <g transform="translate(423.82 173.218288) scale(0.08 -0.08)">
       <defs>
        <path id="DejaVuSans-37" d="M 525 4666 
L 3525 4666 
L 3525 4397 
L 1831 0 
L 1172 0 
L 2766 4134 
L 525 4134 
L 525 4666 
z
" transform="scale(0.015625)"/>
       </defs>
       <use xlink:href="#DejaVuSans-37"/>
       <use xlink:href="#DejaVuSans-2e" transform="translate(63.623047 0)"/>
       <use xlink:href="#DejaVuSans-35" transform="translate(95.410156 0)"/>
      </g>
     </g>
    </g>
    <g id="ytick_11">
     <g id="line2d_33">
      <g>
       <use xlink:href="#m22e9954805" x="414.72" y="136.617217" style="stroke: #000000; stroke-width: 0.8"/>
      </g>
     </g>
     <g id="text_22">
      <!-- 10.0 -->
      <g transform="translate(423.82 139.656592) scale(0.08 -0.08)">
       <use xlink:href="#DejaVuSans-31"/>
       <use xlink:href="#DejaVuSans-30" transform="translate(63.623047 0)"/>
       <use xlink:href="#DejaVuSans-2e" transform="translate(127.246094 0)"/>
       <use xlink:href="#DejaVuSans-30" transform="translate(159.033203 0)"/>
      </g>
     </g>
    </g>
    <g id="ytick_12">
     <g id="line2d_34">
      <g>
       <use xlink:href="#m22e9954805" x="414.72" y="103.055521" style="stroke: #000000; stroke-width: 0.8"/>
      </g>
     </g>
     <g id="text_23">
      <!-- 12.5 -->
      <g transform="translate(423.82 106.094896) scale(0.08 -0.08)">
       <use xlink:href="#DejaVuSans-31"/>
       <use xlink:href="#DejaVuSans-32" transform="translate(63.623047 0)"/>
       <use xlink:href="#DejaVuSans-2e" transform="translate(127.246094 0)"/>
       <use xlink:href="#DejaVuSans-35" transform="translate(159.033203 0)"/>
      </g>
     </g>
    </g>
    <g id="ytick_13">
     <g id="line2d_35">
      <g>
       <use xlink:href="#m22e9954805" x="414.72" y="69.493825" style="stroke: #000000; stroke-width: 0.8"/>
      </g>
     </g>
     <g id="text_24">
      <!-- 15.0 -->
      <g transform="translate(423.82 72.5332) scale(0.08 -0.08)">
       <use xlink:href="#DejaVuSans-31"/>
       <use xlink:href="#DejaVuSans-35" transform="translate(63.623047 0)"/>
       <use xlink:href="#DejaVuSans-2e" transform="translate(127.246094 0)"/>
       <use xlink:href="#DejaVuSans-30" transform="translate(159.033203 0)"/>
      </g>
     </g>
    </g>
    <g id="text_25">
     <!-- Density -->
     <g transform="translate(453.230937 178.992594) rotate(-90) scale(0.1 -0.1)">
      <use xlink:href="#DejaVuSans-44"/>
      <use xlink:href="#DejaVuSans-65" transform="translate(77.001953 0)"/>
      <use xlink:href="#DejaVuSans-6e" transform="translate(138.525391 0)"/>
      <use xlink:href="#DejaVuSans-73" transform="translate(201.904297 0)"/>
      <use xlink:href="#DejaVuSans-69" transform="translate(254.003906 0)"/>
      <use xlink:href="#DejaVuSans-74" transform="translate(281.787109 0)"/>
      <use xlink:href="#DejaVuSans-79" transform="translate(320.996094 0)"/>
     </g>
    </g>
   </g>
   <g id="line2d_36">
    <path d="M 57.95712 270.836798 
L 58.67136 269.930546 
L 59.3856 268.514325 
L 60.09984 267.933383 
L 60.81408 267.824985 
L 61.52832 267.883679 
L 66.528 269.089978 
L 70.0992 269.58332 
L 72.95616 269.864919 
L 86.52672 270.380998 
L 115.09632 270.553965 
L 120.096 270.493274 
L 123.6672 270.58528 
L 132.95232 270.51654 
L 135.09504 270.491981 
L 137.23776 270.506434 
L 138.66624 270.469244 
L 141.5232 270.537279 
L 143.66592 270.536104 
L 189.37728 270.140467 
L 190.09152 270.057979 
L 191.52 270.097284 
L 192.23424 270.022199 
L 192.94848 270.118141 
L 193.66272 270.005866 
L 198.6624 269.972083 
L 201.51936 269.88043 
L 202.94784 269.852053 
L 203.66208 269.859808 
L 204.37632 269.687723 
L 205.09056 269.82297 
L 206.51904 269.721153 
L 211.51872 269.661989 
L 212.23296 269.518575 
L 214.37568 269.479329 
L 215.80416 269.421341 
L 216.5184 269.447661 
L 217.23264 269.263238 
L 218.66112 269.26177 
L 219.37536 269.165827 
L 220.0896 269.26224 
L 221.51808 269.09415 
L 222.23232 268.827297 
L 222.94656 269.221818 
L 225.08928 269.077288 
L 225.80352 269.212418 
L 230.08896 269.03669 
L 235.08864 268.812081 
L 235.80288 268.678361 
L 237.9456 268.675658 
L 238.65984 268.517673 
L 239.37408 268.542761 
L 240.08832 268.683883 
L 240.80256 268.453164 
L 241.5168 268.436243 
L 242.23104 268.28243 
L 242.94528 268.587177 
L 247.94496 268.172681 
L 249.37344 268.454162 
L 250.08768 268.367855 
L 250.80192 267.995778 
L 251.51616 268.333603 
L 252.2304 268.047597 
L 252.94464 268.016752 
L 253.65888 268.285602 
L 254.37312 268.231374 
L 255.08736 267.976977 
L 255.8016 268.098947 
L 257.94432 267.906416 
L 258.65856 267.719466 
L 260.80128 267.885911 
L 262.22976 267.798547 
L 262.944 267.512483 
L 263.65824 267.590564 
L 265.80096 267.532635 
L 266.5152 267.548028 
L 267.22944 267.345979 
L 268.65792 267.302209 
L 269.37216 267.36901 
L 270.0864 267.249155 
L 270.80064 267.370831 
L 274.37184 266.97819 
L 275.08608 267.049515 
L 276.51456 266.972374 
L 285.08544 266.59918 
L 285.79968 266.408882 
L 289.37088 266.32986 
L 290.08512 266.11424 
L 291.5136 265.9626 
L 292.22784 265.832171 
L 295.0848 265.706911 
L 296.51328 265.687934 
L 297.22752 265.48518 
L 300.08448 265.645221 
L 300.79872 265.389708 
L 301.51296 265.488999 
L 302.2272 265.36421 
L 302.94144 265.426487 
L 304.36992 265.090601 
L 305.7984 265.006996 
L 306.51264 265.006115 
L 309.3696 264.458075 
L 310.08384 264.484102 
L 310.79808 264.372943 
L 311.51232 264.377173 
L 314.36928 263.990643 
L 315.08352 263.655109 
L 316.512 263.626673 
L 320.79744 262.965359 
L 322.94016 262.614608 
L 323.6544 262.433534 
L 324.36864 262.38712 
L 325.08288 262.100115 
L 325.79712 262.113628 
L 326.51136 261.749835 
L 327.93984 261.607302 
L 329.36832 261.035761 
L 330.7968 260.822667 
L 331.51104 260.400004 
L 332.22528 260.473268 
L 332.93952 260.224864 
L 333.65376 260.276448 
L 335.79648 259.674062 
L 337.22496 259.549331 
L 337.9392 259.46132 
L 338.65344 259.093708 
L 339.36768 259.094824 
L 350.08128 255.950878 
L 351.50976 255.463764 
L 352.224 255.111956 
L 352.93824 254.998212 
L 355.7952 253.450504 
L 356.50944 253.131362 
L 357.22368 252.683553 
L 357.93792 252.449602 
L 360.08064 251.077034 
L 360.79488 250.724991 
L 361.50912 250.195751 
L 363.65184 248.97541 
L 368.65152 245.448752 
L 369.36576 244.695491 
L 370.08 244.14134 
L 374.36544 239.375717 
L 376.50816 236.197812 
L 377.2224 235.419874 
L 377.93664 233.91858 
L 380.7936 229.420044 
L 381.50784 228.188188 
L 383.65056 223.418804 
L 387.936 210.771695 
L 388.65024 208.408976 
L 390.79296 199.762831 
L 392.22144 193.177477 
L 394.36416 180.462039 
L 395.79264 170.496731 
L 397.93536 152.114881 
L 399.36384 137.100647 
L 400.79232 120.004119 
L 402.2208 100.052235 
L 404.36352 62.880737 
L 405.07776 53.668338 
L 405.792 49.104 
L 406.50624 50.61822 
L 407.22048 61.708984 
L 407.93472 93.003444 
L 410.07744 244.767462 
L 410.79168 267.058328 
L 411.50592 270.760009 
L 412.9344 270.864 
L 414.36288 270.864 
L 414.36288 270.864 
" clip-path="url(#p77b4f22513)" style="fill: none; stroke: #92c5de; stroke-opacity: 0.7; stroke-linecap: square"/>
   </g>
   <g id="patch_7">
    <path d="M 57.6 281.952 
L 57.6 38.016 
" style="fill: none; stroke: #000000; stroke-width: 0.8; stroke-linejoin: miter; stroke-linecap: square"/>
   </g>
   <g id="patch_8">
    <path d="M 414.72 281.952 
L 414.72 38.016 
" style="fill: none; stroke: #000000; stroke-width: 0.8; stroke-linejoin: miter; stroke-linecap: square"/>
   </g>
   <g id="patch_9">
    <path d="M 57.6 281.952 
L 414.72 281.952 
" style="fill: none; stroke: #000000; stroke-width: 0.8; stroke-linejoin: miter; stroke-linecap: square"/>
   </g>
  </g>
 </g>
 <defs>
  <clipPath id="p77b4f22513">
   <rect x="57.6" y="38.016" width="357.12" height="243.936"/>
  </clipPath>
 </defs>
</svg>
