<?xml version="1.0" encoding="utf-8" standalone="no"?>
<!DOCTYPE svg PUBLIC "-//W3C//DTD SVG 1.1//EN"
  "http://www.w3.org/Graphics/SVG/1.1/DTD/svg11.dtd">
<svg xmlns:xlink="http://www.w3.org/1999/xlink" width="460.8pt" height="316.8pt" viewBox="0 0 460.8 316.8" xmlns="http://www.w3.org/2000/svg" version="1.1">
 <metadata>
  <rdf:RDF xmlns:dc="http://purl.org/dc/elements/1.1/" xmlns:cc="http://creativecommons.org/ns#" xmlns:rdf="http://www.w3.org/1999/02/22-rdf-syntax-ns#">
   <cc:Work>
    <dc:type rdf:resource="http://purl.org/dc/dcmitype/StillImage"/>
    <dc:date>2026-03-19T13:49:39.740992</dc:date>
    <dc:format>image/svg+xml</dc:format>
    <dc:creator>
     <cc:Agent>
      <dc:title>Matplotlib v3.10.8, https://matplotlib.org/</dc:title>
     </cc:Agent>
    </dc:creator>
   </cc:Work>
  </rdf:RDF>
 </metadata>
 <defs>
  <style type="text/css">*{stroke-linejoin: round; stroke-linecap: butt}</style>
 </defs>
 <g id="figure_1">
  <g id="patch_1">
   <path d="M 0 316.8 
L 460.8 316.8 
L 460.8 0 
L 0 0 
z
" style="fill: none"/>
  </g>
  <g id="axes_1">
   <g id="patch_2">
    <path d="M 57.6 281.952 
L 414.72 281.952 
L 414.72 38.016 
L 57.6 38.016 
z
" style="fill: none"/>
   </g>
   <g id="FillBetweenPolyCollection_1">
    <defs>
     <path id="m5468efd889" d="M 73.832727 -252.35688 
L 73.832727 -251.037892 
L 80.45833 -251.082091 
L 87.083933 -251.221869 
L 93.709536 -251.40495 
L 100.335139 -251.596783 
L 106.960742 -251.757097 
L 113.586345 -251.578523 
L 120.211948 -250.260575 
L 126.837551 -245.789789 
L 133.463154 -238.384959 
L 140.088757 -230.11036 
L 146.71436 -221.35509 
L 153.339963 -212.115816 
L 159.965566 -202.032971 
L 166.591169 -191.666023 
L 173.216772 -181.67658 
L 179.842375 -172.411667 
L 186.467978 -163.990535 
L 193.093581 -156.40294 
L 199.719184 -149.571107 
L 206.344787 -143.407681 
L 212.97039 -137.845399 
L 219.595993 -132.822551 
L 226.221596 -128.272665 
L 232.847199 -124.115223 
L 239.472801 -120.264161 
L 246.098404 -116.634169 
L 252.724007 -113.165165 
L 259.34961 -109.808662 
L 265.975213 -106.539936 
L 272.600816 -103.350356 
L 279.226419 -100.24397 
L 285.852022 -97.222421 
L 292.477625 -94.29656 
L 299.103228 -91.478792 
L 305.728831 -88.77364 
L 312.354434 -86.177933 
L 318.980037 -83.694806 
L 325.60564 -81.330157 
L 332.231243 -79.098287 
L 338.856846 -77.023081 
L 345.482449 -75.112956 
L 352.108052 -73.266178 
L 358.733655 -71.433149 
L 365.359258 -69.813308 
L 371.984861 -68.413323 
L 378.610464 -67.268609 
L 385.236067 -66.428681 
L 391.86167 -65.947718 
L 398.487273 -65.888327 
L 398.487273 -127.261169 
L 398.487273 -127.261169 
L 391.86167 -127.531493 
L 385.236067 -128.341886 
L 378.610464 -129.70076 
L 371.984861 -131.572108 
L 365.359258 -133.79805 
L 358.733655 -136.369037 
L 352.108052 -139.27681 
L 345.482449 -142.485692 
L 338.856846 -145.961087 
L 332.231243 -149.670593 
L 325.60564 -153.592241 
L 318.980037 -157.656383 
L 312.354434 -161.807547 
L 305.728831 -166.001045 
L 299.103228 -170.203246 
L 292.477625 -174.42282 
L 285.852022 -178.556227 
L 279.226419 -182.651008 
L 272.600816 -186.680076 
L 265.975213 -190.650742 
L 259.34961 -194.692104 
L 252.724007 -198.768907 
L 246.098404 -202.874879 
L 239.472801 -207.01737 
L 232.847199 -211.103001 
L 226.221596 -215.186649 
L 219.595993 -219.260232 
L 212.97039 -223.999137 
L 206.344787 -228.687924 
L 199.719184 -232.919437 
L 193.093581 -237.543091 
L 186.467978 -242.062376 
L 179.842375 -245.958455 
L 173.216772 -248.985927 
L 166.591169 -251.082375 
L 159.965566 -252.267215 
L 153.339963 -253.063863 
L 146.71436 -253.329021 
L 140.088757 -253.389292 
L 133.463154 -253.584074 
L 126.837551 -253.611123 
L 120.211948 -253.498508 
L 113.586345 -253.318261 
L 106.960742 -253.111059 
L 100.335139 -252.92681 
L 93.709536 -252.727094 
L 87.083933 -252.542066 
L 80.45833 -252.401365 
L 73.832727 -252.35688 
z
" style="stroke: #0571b0; stroke-opacity: 0.2; stroke-width: 0.24"/>
    </defs>
    <g clip-path="url(#pc648565004)">
     <use xlink:href="#m5468efd889" x="0" y="316.8" style="fill: #0571b0; fill-opacity: 0.2; stroke: #0571b0; stroke-opacity: 0.2; stroke-width: 0.24"/>
    </g>
   </g>
   <g id="FillBetweenPolyCollection_2">
    <defs>
     <path id="mf3f9aa0022" d="M 73.832727 -253.436925 
L 73.832727 -249.477159 
L 80.45833 -249.522 
L 87.083933 -249.661318 
L 93.709536 -249.841926 
L 100.335139 -250.031147 
L 106.960742 -250.165456 
L 113.586345 -250.044564 
L 120.211948 -248.782019 
L 126.837551 -244.085506 
L 133.463154 -236.030466 
L 140.088757 -227.195884 
L 146.71436 -218.143327 
L 153.339963 -208.876783 
L 159.965566 -198.873162 
L 166.591169 -188.54197 
L 173.216772 -178.472407 
L 179.842375 -169.006897 
L 186.467978 -160.292546 
L 193.093581 -152.347946 
L 199.719184 -145.121034 
L 206.344787 -138.547853 
L 212.97039 -132.577245 
L 219.595993 -127.15795 
L 226.221596 -122.225471 
L 232.847199 -117.697439 
L 239.472801 -113.481047 
L 246.098404 -109.483567 
L 252.724007 -105.633336 
L 259.34961 -101.875382 
L 265.975213 -98.170627 
L 272.600816 -94.497775 
L 279.226419 -90.845594 
L 285.852022 -87.206343 
L 292.477625 -83.581903 
L 299.103228 -79.97476 
L 305.728831 -76.383147 
L 312.354434 -72.792439 
L 318.980037 -69.190126 
L 325.60564 -65.572733 
L 332.231243 -61.944334 
L 338.856846 -58.314277 
L 345.482449 -54.677138 
L 352.108052 -50.933178 
L 358.733655 -47.062588 
L 365.359258 -43.251541 
L 371.984861 -39.532277 
L 378.610464 -35.94983 
L 385.236067 -32.581225 
L 391.86167 -29.555157 
L 398.487273 -27.004575 
L 398.487273 -66.601655 
L 398.487273 -66.601655 
L 391.86167 -70.146824 
L 385.236067 -74.431963 
L 378.610464 -79.282894 
L 371.984861 -84.562345 
L 365.359258 -90.296143 
L 358.733655 -96.386846 
L 352.108052 -102.72968 
L 345.482449 -109.220199 
L 338.856846 -116.089397 
L 332.231243 -123.024493 
L 325.60564 -130.023129 
L 318.980037 -136.974615 
L 312.354434 -143.740002 
L 305.728831 -150.355413 
L 299.103228 -156.683562 
L 292.477625 -162.677469 
L 285.852022 -168.39572 
L 279.226419 -173.816051 
L 272.600816 -178.939655 
L 265.975213 -184.004644 
L 259.34961 -188.934124 
L 252.724007 -193.905817 
L 246.098404 -198.870706 
L 239.472801 -203.467616 
L 232.847199 -207.870186 
L 226.221596 -212.196873 
L 219.595993 -216.766551 
L 212.97039 -221.822612 
L 206.344787 -227.215626 
L 199.719184 -232.093147 
L 193.093581 -236.953554 
L 186.467978 -241.527465 
L 179.842375 -245.755698 
L 173.216772 -248.5159 
L 166.591169 -250.579718 
L 159.965566 -252.238594 
L 153.339963 -252.938425 
L 146.71436 -253.37941 
L 140.088757 -253.767584 
L 133.463154 -254.19834 
L 126.837551 -254.362696 
L 120.211948 -254.287803 
L 113.586345 -254.265573 
L 106.960742 -254.165663 
L 100.335139 -253.997117 
L 93.709536 -253.805784 
L 87.083933 -253.623139 
L 80.45833 -253.482078 
L 73.832727 -253.436925 
z
" style="stroke: #92c5de; stroke-opacity: 0.2; stroke-width: 0.24"/>
    </defs>
    <g clip-path="url(#pc648565004)">
     <use xlink:href="#mf3f9aa0022" x="0" y="316.8" style="fill: #92c5de; fill-opacity: 0.2; stroke: #92c5de; stroke-opacity: 0.2; stroke-width: 0.24"/>
    </g>
   </g>
   <g id="matplotlib.axis_1">
    <g id="xtick_1">
     <g id="line2d_1">
      <path d="M 73.832727 281.952 
L 73.832727 38.016 
" clip-path="url(#pc648565004)" style="fill: none; stroke-dasharray: 2.96,1.28; stroke-dashoffset: 0; stroke: #b0b0b0; stroke-opacity: 0.3; stroke-width: 0.8"/>
     </g>
     <g id="line2d_2">
      <defs>
       <path id="m7e4eb2f206" d="M 0 0 
L 0 3.5 
" style="stroke: #000000; stroke-width: 0.8"/>
      </defs>
      <g>
       <use xlink:href="#m7e4eb2f206" x="73.832727" y="281.952" style="stroke: #000000; stroke-width: 0.8"/>
      </g>
     </g>
     <g id="text_1">
      <!-- 0.0 -->
      <g transform="translate(67.471477 297.13075) scale(0.08 -0.08)">
       <defs>
        <path id="DejaVuSans-30" d="M 2034 4250 
Q 1547 4250 1301 3770 
Q 1056 3291 1056 2328 
Q 1056 1369 1301 889 
Q 1547 409 2034 409 
Q 2525 409 2770 889 
Q 3016 1369 3016 2328 
Q 3016 3291 2770 3770 
Q 2525 4250 2034 4250 
z
M 2034 4750 
Q 2819 4750 3233 4129 
Q 3647 3509 3647 2328 
Q 3647 1150 3233 529 
Q 2819 -91 2034 -91 
Q 1250 -91 836 529 
Q 422 1150 422 2328 
Q 422 3509 836 4129 
Q 1250 4750 2034 4750 
z
" transform="scale(0.015625)"/>
        <path id="DejaVuSans-2e" d="M 684 794 
L 1344 794 
L 1344 0 
L 684 0 
L 684 794 
z
" transform="scale(0.015625)"/>
       </defs>
       <use xlink:href="#DejaVuSans-30"/>
       <use xlink:href="#DejaVuSans-2e" transform="translate(63.623047 0)"/>
       <use xlink:href="#DejaVuSans-30" transform="translate(95.410156 0)"/>
      </g>
     </g>
    </g>
    <g id="xtick_2">
     <g id="line2d_3">
      <path d="M 142.181053 281.952 
L 142.181053 38.016 
" clip-path="url(#pc648565004)" style="fill: none; stroke-dasharray: 2.96,1.28; stroke-dashoffset: 0; stroke: #b0b0b0; stroke-opacity: 0.3; stroke-width: 0.8"/>
     </g>
     <g id="line2d_4">
      <g>
       <use xlink:href="#m7e4eb2f206" x="142.181053" y="281.952" style="stroke: #000000; stroke-width: 0.8"/>
      </g>
     </g>
     <g id="text_2">
      <!-- 0.2 -->
      <g transform="translate(135.819803 297.13075) scale(0.08 -0.08)">
       <defs>
        <path id="DejaVuSans-32" d="M 1228 531 
L 3431 531 
L 3431 0 
L 469 0 
L 469 531 
Q 828 903 1448 1529 
Q 2069 2156 2228 2338 
Q 2531 2678 2651 2914 
Q 2772 3150 2772 3378 
Q 2772 3750 2511 3984 
Q 2250 4219 1831 4219 
Q 1534 4219 1204 4116 
Q 875 4013 500 3803 
L 500 4441 
Q 881 4594 1212 4672 
Q 1544 4750 1819 4750 
Q 2544 4750 2975 4387 
Q 3406 4025 3406 3419 
Q 3406 3131 3298 2873 
Q 3191 2616 2906 2266 
Q 2828 2175 2409 1742 
Q 1991 1309 1228 531 
z
" transform="scale(0.015625)"/>
       </defs>
       <use xlink:href="#DejaVuSans-30"/>
       <use xlink:href="#DejaVuSans-2e" transform="translate(63.623047 0)"/>
       <use xlink:href="#DejaVuSans-32" transform="translate(95.410156 0)"/>
      </g>
     </g>
    </g>
    <g id="xtick_3">
     <g id="line2d_5">
      <path d="M 210.529378 281.952 
L 210.529378 38.016 
" clip-path="url(#pc648565004)" style="fill: none; stroke-dasharray: 2.96,1.28; stroke-dashoffset: 0; stroke: #b0b0b0; stroke-opacity: 0.3; stroke-width: 0.8"/>
     </g>
     <g id="line2d_6">
      <g>
       <use xlink:href="#m7e4eb2f206" x="210.529378" y="281.952" style="stroke: #000000; stroke-width: 0.8"/>
      </g>
     </g>
     <g id="text_3">
      <!-- 0.4 -->
      <g transform="translate(204.168128 297.13075) scale(0.08 -0.08)">
       <defs>
        <path id="DejaVuSans-34" d="M 2419 4116 
L 825 1625 
L 2419 1625 
L 2419 4116 
z
M 2253 4666 
L 3047 4666 
L 3047 1625 
L 3713 1625 
L 3713 1100 
L 3047 1100 
L 3047 0 
L 2419 0 
L 2419 1100 
L 313 1100 
L 313 1709 
L 2253 4666 
z
" transform="scale(0.015625)"/>
       </defs>
       <use xlink:href="#DejaVuSans-30"/>
       <use xlink:href="#DejaVuSans-2e" transform="translate(63.623047 0)"/>
       <use xlink:href="#DejaVuSans-34" transform="translate(95.410156 0)"/>
      </g>
     </g>
    </g>
    <g id="xtick_4">
     <g id="line2d_7">
      <path d="M 278.877703 281.952 
L 278.877703 38.016 
" clip-path="url(#pc648565004)" style="fill: none; stroke-dasharray: 2.96,1.28; stroke-dashoffset: 0; stroke: #b0b0b0; stroke-opacity: 0.3; stroke-width: 0.8"/>
     </g>
     <g id="line2d_8">
      <g>
       <use xlink:href="#m7e4eb2f206" x="278.877703" y="281.952" style="stroke: #000000; stroke-width: 0.8"/>
      </g>
     </g>
     <g id="text_4">
      <!-- 0.6 -->
      <g transform="translate(272.516453 297.13075) scale(0.08 -0.08)">
       <defs>
        <path id="DejaVuSans-36" d="M 2113 2584 
Q 1688 2584 1439 2293 
Q 1191 2003 1191 1497 
Q 1191 994 1439 701 
Q 1688 409 2113 409 
Q 2538 409 2786 701 
Q 3034 994 3034 1497 
Q 3034 2003 2786 2293 
Q 2538 2584 2113 2584 
z
M 3366 4563 
L 3366 3988 
Q 3128 4100 2886 4159 
Q 2644 4219 2406 4219 
Q 1781 4219 1451 3797 
Q 1122 3375 1075 2522 
Q 1259 2794 1537 2939 
Q 1816 3084 2150 3084 
Q 2853 3084 3261 2657 
Q 3669 2231 3669 1497 
Q 3669 778 3244 343 
Q 2819 -91 2113 -91 
Q 1303 -91 875 529 
Q 447 1150 447 2328 
Q 447 3434 972 4092 
Q 1497 4750 2381 4750 
Q 2619 4750 2861 4703 
Q 3103 4656 3366 4563 
z
" transform="scale(0.015625)"/>
       </defs>
       <use xlink:href="#DejaVuSans-30"/>
       <use xlink:href="#DejaVuSans-2e" transform="translate(63.623047 0)"/>
       <use xlink:href="#DejaVuSans-36" transform="translate(95.410156 0)"/>
      </g>
     </g>
    </g>
    <g id="xtick_5">
     <g id="line2d_9">
      <path d="M 347.226029 281.952 
L 347.226029 38.016 
" clip-path="url(#pc648565004)" style="fill: none; stroke-dasharray: 2.96,1.28; stroke-dashoffset: 0; stroke: #b0b0b0; stroke-opacity: 0.3; stroke-width: 0.8"/>
     </g>
     <g id="line2d_10">
      <g>
       <use xlink:href="#m7e4eb2f206" x="347.226029" y="281.952" style="stroke: #000000; stroke-width: 0.8"/>
      </g>
     </g>
     <g id="text_5">
      <!-- 0.8 -->
      <g transform="translate(340.864779 297.13075) scale(0.08 -0.08)">
       <defs>
        <path id="DejaVuSans-38" d="M 2034 2216 
Q 1584 2216 1326 1975 
Q 1069 1734 1069 1313 
Q 1069 891 1326 650 
Q 1584 409 2034 409 
Q 2484 409 2743 651 
Q 3003 894 3003 1313 
Q 3003 1734 2745 1975 
Q 2488 2216 2034 2216 
z
M 1403 2484 
Q 997 2584 770 2862 
Q 544 3141 544 3541 
Q 544 4100 942 4425 
Q 1341 4750 2034 4750 
Q 2731 4750 3128 4425 
Q 3525 4100 3525 3541 
Q 3525 3141 3298 2862 
Q 3072 2584 2669 2484 
Q 3125 2378 3379 2068 
Q 3634 1759 3634 1313 
Q 3634 634 3220 271 
Q 2806 -91 2034 -91 
Q 1263 -91 848 271 
Q 434 634 434 1313 
Q 434 1759 690 2068 
Q 947 2378 1403 2484 
z
M 1172 3481 
Q 1172 3119 1398 2916 
Q 1625 2713 2034 2713 
Q 2441 2713 2670 2916 
Q 2900 3119 2900 3481 
Q 2900 3844 2670 4047 
Q 2441 4250 2034 4250 
Q 1625 4250 1398 4047 
Q 1172 3844 1172 3481 
z
" transform="scale(0.015625)"/>
       </defs>
       <use xlink:href="#DejaVuSans-30"/>
       <use xlink:href="#DejaVuSans-2e" transform="translate(63.623047 0)"/>
       <use xlink:href="#DejaVuSans-38" transform="translate(95.410156 0)"/>
      </g>
     </g>
    </g>
    <g id="text_6">
     <!-- Minimal PCP Coverage (%) -->
     <g transform="translate(169.677969 310.392938) scale(0.1 -0.1)">
      <defs>
       <path id="DejaVuSans-4d" d="M 628 4666 
L 1569 4666 
L 2759 1491 
L 3956 4666 
L 4897 4666 
L 4897 0 
L 4281 0 
L 4281 4097 
L 3078 897 
L 2444 897 
L 1241 4097 
L 1241 0 
L 628 0 
L 628 4666 
z
" transform="scale(0.015625)"/>
       <path id="DejaVuSans-69" d="M 603 3500 
L 1178 3500 
L 1178 0 
L 603 0 
L 603 3500 
z
M 603 4863 
L 1178 4863 
L 1178 4134 
L 603 4134 
L 603 4863 
z
" transform="scale(0.015625)"/>
       <path id="DejaVuSans-6e" d="M 3513 2113 
L 3513 0 
L 2938 0 
L 2938 2094 
Q 2938 2591 2744 2837 
Q 2550 3084 2163 3084 
Q 1697 3084 1428 2787 
Q 1159 2491 1159 1978 
L 1159 0 
L 581 0 
L 581 3500 
L 1159 3500 
L 1159 2956 
Q 1366 3272 1645 3428 
Q 1925 3584 2291 3584 
Q 2894 3584 3203 3211 
Q 3513 2838 3513 2113 
z
" transform="scale(0.015625)"/>
       <path id="DejaVuSans-6d" d="M 3328 2828 
Q 3544 3216 3844 3400 
Q 4144 3584 4550 3584 
Q 5097 3584 5394 3201 
Q 5691 2819 5691 2113 
L 5691 0 
L 5113 0 
L 5113 2094 
Q 5113 2597 4934 2840 
Q 4756 3084 4391 3084 
Q 3944 3084 3684 2787 
Q 3425 2491 3425 1978 
L 3425 0 
L 2847 0 
L 2847 2094 
Q 2847 2600 2669 2842 
Q 2491 3084 2119 3084 
Q 1678 3084 1418 2786 
Q 1159 2488 1159 1978 
L 1159 0 
L 581 0 
L 581 3500 
L 1159 3500 
L 1159 2956 
Q 1356 3278 1631 3431 
Q 1906 3584 2284 3584 
Q 2666 3584 2933 3390 
Q 3200 3197 3328 2828 
z
" transform="scale(0.015625)"/>
       <path id="DejaVuSans-61" d="M 2194 1759 
Q 1497 1759 1228 1600 
Q 959 1441 959 1056 
Q 959 750 1161 570 
Q 1363 391 1709 391 
Q 2188 391 2477 730 
Q 2766 1069 2766 1631 
L 2766 1759 
L 2194 1759 
z
M 3341 1997 
L 3341 0 
L 2766 0 
L 2766 531 
Q 2569 213 2275 61 
Q 1981 -91 1556 -91 
Q 1019 -91 701 211 
Q 384 513 384 1019 
Q 384 1609 779 1909 
Q 1175 2209 1959 2209 
L 2766 2209 
L 2766 2266 
Q 2766 2663 2505 2880 
Q 2244 3097 1772 3097 
Q 1472 3097 1187 3025 
Q 903 2953 641 2809 
L 641 3341 
Q 956 3463 1253 3523 
Q 1550 3584 1831 3584 
Q 2591 3584 2966 3190 
Q 3341 2797 3341 1997 
z
" transform="scale(0.015625)"/>
       <path id="DejaVuSans-6c" d="M 603 4863 
L 1178 4863 
L 1178 0 
L 603 0 
L 603 4863 
z
" transform="scale(0.015625)"/>
       <path id="DejaVuSans-20" transform="scale(0.015625)"/>
       <path id="DejaVuSans-50" d="M 1259 4147 
L 1259 2394 
L 2053 2394 
Q 2494 2394 2734 2622 
Q 2975 2850 2975 3272 
Q 2975 3691 2734 3919 
Q 2494 4147 2053 4147 
L 1259 4147 
z
M 628 4666 
L 2053 4666 
Q 2838 4666 3239 4311 
Q 3641 3956 3641 3272 
Q 3641 2581 3239 2228 
Q 2838 1875 2053 1875 
L 1259 1875 
L 1259 0 
L 628 0 
L 628 4666 
z
" transform="scale(0.015625)"/>
       <path id="DejaVuSans-43" d="M 4122 4306 
L 4122 3641 
Q 3803 3938 3442 4084 
Q 3081 4231 2675 4231 
Q 1875 4231 1450 3742 
Q 1025 3253 1025 2328 
Q 1025 1406 1450 917 
Q 1875 428 2675 428 
Q 3081 428 3442 575 
Q 3803 722 4122 1019 
L 4122 359 
Q 3791 134 3420 21 
Q 3050 -91 2638 -91 
Q 1578 -91 968 557 
Q 359 1206 359 2328 
Q 359 3453 968 4101 
Q 1578 4750 2638 4750 
Q 3056 4750 3426 4639 
Q 3797 4528 4122 4306 
z
" transform="scale(0.015625)"/>
       <path id="DejaVuSans-6f" d="M 1959 3097 
Q 1497 3097 1228 2736 
Q 959 2375 959 1747 
Q 959 1119 1226 758 
Q 1494 397 1959 397 
Q 2419 397 2687 759 
Q 2956 1122 2956 1747 
Q 2956 2369 2687 2733 
Q 2419 3097 1959 3097 
z
M 1959 3584 
Q 2709 3584 3137 3096 
Q 3566 2609 3566 1747 
Q 3566 888 3137 398 
Q 2709 -91 1959 -91 
Q 1206 -91 779 398 
Q 353 888 353 1747 
Q 353 2609 779 3096 
Q 1206 3584 1959 3584 
z
" transform="scale(0.015625)"/>
       <path id="DejaVuSans-76" d="M 191 3500 
L 800 3500 
L 1894 563 
L 2988 3500 
L 3597 3500 
L 2284 0 
L 1503 0 
L 191 3500 
z
" transform="scale(0.015625)"/>
       <path id="DejaVuSans-65" d="M 3597 1894 
L 3597 1613 
L 953 1613 
Q 991 1019 1311 708 
Q 1631 397 2203 397 
Q 2534 397 2845 478 
Q 3156 559 3463 722 
L 3463 178 
Q 3153 47 2828 -22 
Q 2503 -91 2169 -91 
Q 1331 -91 842 396 
Q 353 884 353 1716 
Q 353 2575 817 3079 
Q 1281 3584 2069 3584 
Q 2775 3584 3186 3129 
Q 3597 2675 3597 1894 
z
M 3022 2063 
Q 3016 2534 2758 2815 
Q 2500 3097 2075 3097 
Q 1594 3097 1305 2825 
Q 1016 2553 972 2059 
L 3022 2063 
z
" transform="scale(0.015625)"/>
       <path id="DejaVuSans-72" d="M 2631 2963 
Q 2534 3019 2420 3045 
Q 2306 3072 2169 3072 
Q 1681 3072 1420 2755 
Q 1159 2438 1159 1844 
L 1159 0 
L 581 0 
L 581 3500 
L 1159 3500 
L 1159 2956 
Q 1341 3275 1631 3429 
Q 1922 3584 2338 3584 
Q 2397 3584 2469 3576 
Q 2541 3569 2628 3553 
L 2631 2963 
z
" transform="scale(0.015625)"/>
       <path id="DejaVuSans-67" d="M 2906 1791 
Q 2906 2416 2648 2759 
Q 2391 3103 1925 3103 
Q 1463 3103 1205 2759 
Q 947 2416 947 1791 
Q 947 1169 1205 825 
Q 1463 481 1925 481 
Q 2391 481 2648 825 
Q 2906 1169 2906 1791 
z
M 3481 434 
Q 3481 -459 3084 -895 
Q 2688 -1331 1869 -1331 
Q 1566 -1331 1297 -1286 
Q 1028 -1241 775 -1147 
L 775 -588 
Q 1028 -725 1275 -790 
Q 1522 -856 1778 -856 
Q 2344 -856 2625 -561 
Q 2906 -266 2906 331 
L 2906 616 
Q 2728 306 2450 153 
Q 2172 0 1784 0 
Q 1141 0 747 490 
Q 353 981 353 1791 
Q 353 2603 747 3093 
Q 1141 3584 1784 3584 
Q 2172 3584 2450 3431 
Q 2728 3278 2906 2969 
L 2906 3500 
L 3481 3500 
L 3481 434 
z
" transform="scale(0.015625)"/>
       <path id="DejaVuSans-28" d="M 1984 4856 
Q 1566 4138 1362 3434 
Q 1159 2731 1159 2009 
Q 1159 1288 1364 580 
Q 1569 -128 1984 -844 
L 1484 -844 
Q 1016 -109 783 600 
Q 550 1309 550 2009 
Q 550 2706 781 3412 
Q 1013 4119 1484 4856 
L 1984 4856 
z
" transform="scale(0.015625)"/>
       <path id="DejaVuSans-25" d="M 4653 2053 
Q 4381 2053 4226 1822 
Q 4072 1591 4072 1178 
Q 4072 772 4226 539 
Q 4381 306 4653 306 
Q 4919 306 5073 539 
Q 5228 772 5228 1178 
Q 5228 1588 5073 1820 
Q 4919 2053 4653 2053 
z
M 4653 2450 
Q 5147 2450 5437 2106 
Q 5728 1763 5728 1178 
Q 5728 594 5436 251 
Q 5144 -91 4653 -91 
Q 4153 -91 3862 251 
Q 3572 594 3572 1178 
Q 3572 1766 3864 2108 
Q 4156 2450 4653 2450 
z
M 1428 4353 
Q 1159 4353 1004 4120 
Q 850 3888 850 3481 
Q 850 3069 1003 2837 
Q 1156 2606 1428 2606 
Q 1700 2606 1854 2837 
Q 2009 3069 2009 3481 
Q 2009 3884 1853 4118 
Q 1697 4353 1428 4353 
z
M 4250 4750 
L 4750 4750 
L 1831 -91 
L 1331 -91 
L 4250 4750 
z
M 1428 4750 
Q 1922 4750 2215 4408 
Q 2509 4066 2509 3481 
Q 2509 2891 2217 2550 
Q 1925 2209 1428 2209 
Q 931 2209 642 2551 
Q 353 2894 353 3481 
Q 353 4063 643 4406 
Q 934 4750 1428 4750 
z
" transform="scale(0.015625)"/>
       <path id="DejaVuSans-29" d="M 513 4856 
L 1013 4856 
Q 1481 4119 1714 3412 
Q 1947 2706 1947 2009 
Q 1947 1309 1714 600 
Q 1481 -109 1013 -844 
L 513 -844 
Q 928 -128 1133 580 
Q 1338 1288 1338 2009 
Q 1338 2731 1133 3434 
Q 928 4138 513 4856 
z
" transform="scale(0.015625)"/>
      </defs>
      <use xlink:href="#DejaVuSans-4d"/>
      <use xlink:href="#DejaVuSans-69" transform="translate(86.279297 0)"/>
      <use xlink:href="#DejaVuSans-6e" transform="translate(114.0625 0)"/>
      <use xlink:href="#DejaVuSans-69" transform="translate(177.441406 0)"/>
      <use xlink:href="#DejaVuSans-6d" transform="translate(205.224609 0)"/>
      <use xlink:href="#DejaVuSans-61" transform="translate(302.636719 0)"/>
      <use xlink:href="#DejaVuSans-6c" transform="translate(363.916016 0)"/>
      <use xlink:href="#DejaVuSans-20" transform="translate(391.699219 0)"/>
      <use xlink:href="#DejaVuSans-50" transform="translate(423.486328 0)"/>
      <use xlink:href="#DejaVuSans-43" transform="translate(483.789062 0)"/>
      <use xlink:href="#DejaVuSans-50" transform="translate(553.613281 0)"/>
      <use xlink:href="#DejaVuSans-20" transform="translate(613.916016 0)"/>
      <use xlink:href="#DejaVuSans-43" transform="translate(645.703125 0)"/>
      <use xlink:href="#DejaVuSans-6f" transform="translate(715.527344 0)"/>
      <use xlink:href="#DejaVuSans-76" transform="translate(776.708984 0)"/>
      <use xlink:href="#DejaVuSans-65" transform="translate(835.888672 0)"/>
      <use xlink:href="#DejaVuSans-72" transform="translate(897.412109 0)"/>
      <use xlink:href="#DejaVuSans-61" transform="translate(938.525391 0)"/>
      <use xlink:href="#DejaVuSans-67" transform="translate(999.804688 0)"/>
      <use xlink:href="#DejaVuSans-65" transform="translate(1063.28125 0)"/>
      <use xlink:href="#DejaVuSans-20" transform="translate(1124.804688 0)"/>
      <use xlink:href="#DejaVuSans-28" transform="translate(1156.591797 0)"/>
      <use xlink:href="#DejaVuSans-25" transform="translate(1195.605469 0)"/>
      <use xlink:href="#DejaVuSans-29" transform="translate(1290.625 0)"/>
     </g>
    </g>
   </g>
   <g id="matplotlib.axis_2">
    <g id="ytick_1">
     <g id="line2d_11">
      <path d="M 57.6 281.952 
L 414.72 281.952 
" clip-path="url(#pc648565004)" style="fill: none; stroke-dasharray: 2.96,1.28; stroke-dashoffset: 0; stroke: #b0b0b0; stroke-opacity: 0.3; stroke-width: 0.8"/>
     </g>
     <g id="line2d_12">
      <defs>
       <path id="m7319f77908" d="M 0 0 
L -3.5 0 
" style="stroke: #000000; stroke-width: 0.8"/>
      </defs>
      <g>
       <use xlink:href="#m7319f77908" x="57.6" y="281.952" style="stroke: #000000; stroke-width: 0.8"/>
      </g>
     </g>
     <g id="text_7">
      <!-- −40 -->
      <g transform="translate(31.61625 284.991375) scale(0.08 -0.08)">
       <defs>
        <path id="DejaVuSans-2212" d="M 678 2272 
L 4684 2272 
L 4684 1741 
L 678 1741 
L 678 2272 
z
" transform="scale(0.015625)"/>
       </defs>
       <use xlink:href="#DejaVuSans-2212"/>
       <use xlink:href="#DejaVuSans-34" transform="translate(83.789062 0)"/>
       <use xlink:href="#DejaVuSans-30" transform="translate(147.412109 0)"/>
      </g>
     </g>
    </g>
    <g id="ytick_2">
     <g id="line2d_13">
      <path d="M 57.6 254.848 
L 414.72 254.848 
" clip-path="url(#pc648565004)" style="fill: none; stroke-dasharray: 2.96,1.28; stroke-dashoffset: 0; stroke: #b0b0b0; stroke-opacity: 0.3; stroke-width: 0.8"/>
     </g>
     <g id="line2d_14">
      <g>
       <use xlink:href="#m7319f77908" x="57.6" y="254.848" style="stroke: #000000; stroke-width: 0.8"/>
      </g>
     </g>
     <g id="text_8">
      <!-- −35 -->
      <g transform="translate(31.61625 257.887375) scale(0.08 -0.08)">
       <defs>
        <path id="DejaVuSans-33" d="M 2597 2516 
Q 3050 2419 3304 2112 
Q 3559 1806 3559 1356 
Q 3559 666 3084 287 
Q 2609 -91 1734 -91 
Q 1441 -91 1130 -33 
Q 819 25 488 141 
L 488 750 
Q 750 597 1062 519 
Q 1375 441 1716 441 
Q 2309 441 2620 675 
Q 2931 909 2931 1356 
Q 2931 1769 2642 2001 
Q 2353 2234 1838 2234 
L 1294 2234 
L 1294 2753 
L 1863 2753 
Q 2328 2753 2575 2939 
Q 2822 3125 2822 3475 
Q 2822 3834 2567 4026 
Q 2313 4219 1838 4219 
Q 1578 4219 1281 4162 
Q 984 4106 628 3988 
L 628 4550 
Q 988 4650 1302 4700 
Q 1616 4750 1894 4750 
Q 2613 4750 3031 4423 
Q 3450 4097 3450 3541 
Q 3450 3153 3228 2886 
Q 3006 2619 2597 2516 
z
" transform="scale(0.015625)"/>
        <path id="DejaVuSans-35" d="M 691 4666 
L 3169 4666 
L 3169 4134 
L 1269 4134 
L 1269 2991 
Q 1406 3038 1543 3061 
Q 1681 3084 1819 3084 
Q 2600 3084 3056 2656 
Q 3513 2228 3513 1497 
Q 3513 744 3044 326 
Q 2575 -91 1722 -91 
Q 1428 -91 1123 -41 
Q 819 9 494 109 
L 494 744 
Q 775 591 1075 516 
Q 1375 441 1709 441 
Q 2250 441 2565 725 
Q 2881 1009 2881 1497 
Q 2881 1984 2565 2268 
Q 2250 2553 1709 2553 
Q 1456 2553 1204 2497 
Q 953 2441 691 2322 
L 691 4666 
z
" transform="scale(0.015625)"/>
       </defs>
       <use xlink:href="#DejaVuSans-2212"/>
       <use xlink:href="#DejaVuSans-33" transform="translate(83.789062 0)"/>
       <use xlink:href="#DejaVuSans-35" transform="translate(147.412109 0)"/>
      </g>
     </g>
    </g>
    <g id="ytick_3">
     <g id="line2d_15">
      <path d="M 57.6 227.744 
L 414.72 227.744 
" clip-path="url(#pc648565004)" style="fill: none; stroke-dasharray: 2.96,1.28; stroke-dashoffset: 0; stroke: #b0b0b0; stroke-opacity: 0.3; stroke-width: 0.8"/>
     </g>
     <g id="line2d_16">
      <g>
       <use xlink:href="#m7319f77908" x="57.6" y="227.744" style="stroke: #000000; stroke-width: 0.8"/>
      </g>
     </g>
     <g id="text_9">
      <!-- −30 -->
      <g transform="translate(31.61625 230.783375) scale(0.08 -0.08)">
       <use xlink:href="#DejaVuSans-2212"/>
       <use xlink:href="#DejaVuSans-33" transform="translate(83.789062 0)"/>
       <use xlink:href="#DejaVuSans-30" transform="translate(147.412109 0)"/>
      </g>
     </g>
    </g>
    <g id="ytick_4">
     <g id="line2d_17">
      <path d="M 57.6 200.64 
L 414.72 200.64 
" clip-path="url(#pc648565004)" style="fill: none; stroke-dasharray: 2.96,1.28; stroke-dashoffset: 0; stroke: #b0b0b0; stroke-opacity: 0.3; stroke-width: 0.8"/>
     </g>
     <g id="line2d_18">
      <g>
       <use xlink:href="#m7319f77908" x="57.6" y="200.64" style="stroke: #000000; stroke-width: 0.8"/>
      </g>
     </g>
     <g id="text_10">
      <!-- −25 -->
      <g transform="translate(31.61625 203.679375) scale(0.08 -0.08)">
       <use xlink:href="#DejaVuSans-2212"/>
       <use xlink:href="#DejaVuSans-32" transform="translate(83.789062 0)"/>
       <use xlink:href="#DejaVuSans-35" transform="translate(147.412109 0)"/>
      </g>
     </g>
    </g>
    <g id="ytick_5">
     <g id="line2d_19">
      <path d="M 57.6 173.536 
L 414.72 173.536 
" clip-path="url(#pc648565004)" style="fill: none; stroke-dasharray: 2.96,1.28; stroke-dashoffset: 0; stroke: #b0b0b0; stroke-opacity: 0.3; stroke-width: 0.8"/>
     </g>
     <g id="line2d_20">
      <g>
       <use xlink:href="#m7319f77908" x="57.6" y="173.536" style="stroke: #000000; stroke-width: 0.8"/>
      </g>
     </g>
     <g id="text_11">
      <!-- −20 -->
      <g transform="translate(31.61625 176.575375) scale(0.08 -0.08)">
       <use xlink:href="#DejaVuSans-2212"/>
       <use xlink:href="#DejaVuSans-32" transform="translate(83.789062 0)"/>
       <use xlink:href="#DejaVuSans-30" transform="translate(147.412109 0)"/>
      </g>
     </g>
    </g>
    <g id="ytick_6">
     <g id="line2d_21">
      <path d="M 57.6 146.432 
L 414.72 146.432 
" clip-path="url(#pc648565004)" style="fill: none; stroke-dasharray: 2.96,1.28; stroke-dashoffset: 0; stroke: #b0b0b0; stroke-opacity: 0.3; stroke-width: 0.8"/>
     </g>
     <g id="line2d_22">
      <g>
       <use xlink:href="#m7319f77908" x="57.6" y="146.432" style="stroke: #000000; stroke-width: 0.8"/>
      </g>
     </g>
     <g id="text_12">
      <!-- −15 -->
      <g transform="translate(31.61625 149.471375) scale(0.08 -0.08)">
       <defs>
        <path id="DejaVuSans-31" d="M 794 531 
L 1825 531 
L 1825 4091 
L 703 3866 
L 703 4441 
L 1819 4666 
L 2450 4666 
L 2450 531 
L 3481 531 
L 3481 0 
L 794 0 
L 794 531 
z
" transform="scale(0.015625)"/>
       </defs>
       <use xlink:href="#DejaVuSans-2212"/>
       <use xlink:href="#DejaVuSans-31" transform="translate(83.789062 0)"/>
       <use xlink:href="#DejaVuSans-35" transform="translate(147.412109 0)"/>
      </g>
     </g>
    </g>
    <g id="ytick_7">
     <g id="line2d_23">
      <path d="M 57.6 119.328 
L 414.72 119.328 
" clip-path="url(#pc648565004)" style="fill: none; stroke-dasharray: 2.96,1.28; stroke-dashoffset: 0; stroke: #b0b0b0; stroke-opacity: 0.3; stroke-width: 0.8"/>
     </g>
     <g id="line2d_24">
      <g>
       <use xlink:href="#m7319f77908" x="57.6" y="119.328" style="stroke: #000000; stroke-width: 0.8"/>
      </g>
     </g>
     <g id="text_13">
      <!-- −10 -->
      <g transform="translate(31.61625 122.367375) scale(0.08 -0.08)">
       <use xlink:href="#DejaVuSans-2212"/>
       <use xlink:href="#DejaVuSans-31" transform="translate(83.789062 0)"/>
       <use xlink:href="#DejaVuSans-30" transform="translate(147.412109 0)"/>
      </g>
     </g>
    </g>
    <g id="ytick_8">
     <g id="line2d_25">
      <path d="M 57.6 92.224 
L 414.72 92.224 
" clip-path="url(#pc648565004)" style="fill: none; stroke-dasharray: 2.96,1.28; stroke-dashoffset: 0; stroke: #b0b0b0; stroke-opacity: 0.3; stroke-width: 0.8"/>
     </g>
     <g id="line2d_26">
      <g>
       <use xlink:href="#m7319f77908" x="57.6" y="92.224" style="stroke: #000000; stroke-width: 0.8"/>
      </g>
     </g>
     <g id="text_14">
      <!-- −5 -->
      <g transform="translate(36.70625 95.263375) scale(0.08 -0.08)">
       <use xlink:href="#DejaVuSans-2212"/>
       <use xlink:href="#DejaVuSans-35" transform="translate(83.789062 0)"/>
      </g>
     </g>
    </g>
    <g id="ytick_9">
     <g id="line2d_27">
      <path d="M 57.6 65.12 
L 414.72 65.12 
" clip-path="url(#pc648565004)" style="fill: none; stroke-dasharray: 2.96,1.28; stroke-dashoffset: 0; stroke: #b0b0b0; stroke-opacity: 0.3; stroke-width: 0.8"/>
     </g>
     <g id="line2d_28">
      <g>
       <use xlink:href="#m7319f77908" x="57.6" y="65.12" style="stroke: #000000; stroke-width: 0.8"/>
      </g>
     </g>
     <g id="text_15">
      <!-- 0 -->
      <g transform="translate(43.41 68.159375) scale(0.08 -0.08)">
       <use xlink:href="#DejaVuSans-30"/>
      </g>
     </g>
    </g>
    <g id="ytick_10">
     <g id="line2d_29">
      <path d="M 57.6 38.016 
L 414.72 38.016 
" clip-path="url(#pc648565004)" style="fill: none; stroke-dasharray: 2.96,1.28; stroke-dashoffset: 0; stroke: #b0b0b0; stroke-opacity: 0.3; stroke-width: 0.8"/>
     </g>
     <g id="line2d_30">
      <g>
       <use xlink:href="#m7319f77908" x="57.6" y="38.016" style="stroke: #000000; stroke-width: 0.8"/>
      </g>
     </g>
     <g id="text_16">
      <!-- 5 -->
      <g transform="translate(43.41 41.055375) scale(0.08 -0.08)">
       <use xlink:href="#DejaVuSans-35"/>
      </g>
     </g>
    </g>
    <g id="text_17">
     <!-- Reduction in Adverse Events (%) -->
     <g transform="translate(25.536562 241.754313) rotate(-90) scale(0.1 -0.1)">
      <defs>
       <path id="DejaVuSans-52" d="M 2841 2188 
Q 3044 2119 3236 1894 
Q 3428 1669 3622 1275 
L 4263 0 
L 3584 0 
L 2988 1197 
Q 2756 1666 2539 1819 
Q 2322 1972 1947 1972 
L 1259 1972 
L 1259 0 
L 628 0 
L 628 4666 
L 2053 4666 
Q 2853 4666 3247 4331 
Q 3641 3997 3641 3322 
Q 3641 2881 3436 2590 
Q 3231 2300 2841 2188 
z
M 1259 4147 
L 1259 2491 
L 2053 2491 
Q 2509 2491 2742 2702 
Q 2975 2913 2975 3322 
Q 2975 3731 2742 3939 
Q 2509 4147 2053 4147 
L 1259 4147 
z
" transform="scale(0.015625)"/>
       <path id="DejaVuSans-64" d="M 2906 2969 
L 2906 4863 
L 3481 4863 
L 3481 0 
L 2906 0 
L 2906 525 
Q 2725 213 2448 61 
Q 2172 -91 1784 -91 
Q 1150 -91 751 415 
Q 353 922 353 1747 
Q 353 2572 751 3078 
Q 1150 3584 1784 3584 
Q 2172 3584 2448 3432 
Q 2725 3281 2906 2969 
z
M 947 1747 
Q 947 1113 1208 752 
Q 1469 391 1925 391 
Q 2381 391 2643 752 
Q 2906 1113 2906 1747 
Q 2906 2381 2643 2742 
Q 2381 3103 1925 3103 
Q 1469 3103 1208 2742 
Q 947 2381 947 1747 
z
" transform="scale(0.015625)"/>
       <path id="DejaVuSans-75" d="M 544 1381 
L 544 3500 
L 1119 3500 
L 1119 1403 
Q 1119 906 1312 657 
Q 1506 409 1894 409 
Q 2359 409 2629 706 
Q 2900 1003 2900 1516 
L 2900 3500 
L 3475 3500 
L 3475 0 
L 2900 0 
L 2900 538 
Q 2691 219 2414 64 
Q 2138 -91 1772 -91 
Q 1169 -91 856 284 
Q 544 659 544 1381 
z
M 1991 3584 
L 1991 3584 
z
" transform="scale(0.015625)"/>
       <path id="DejaVuSans-63" d="M 3122 3366 
L 3122 2828 
Q 2878 2963 2633 3030 
Q 2388 3097 2138 3097 
Q 1578 3097 1268 2742 
Q 959 2388 959 1747 
Q 959 1106 1268 751 
Q 1578 397 2138 397 
Q 2388 397 2633 464 
Q 2878 531 3122 666 
L 3122 134 
Q 2881 22 2623 -34 
Q 2366 -91 2075 -91 
Q 1284 -91 818 406 
Q 353 903 353 1747 
Q 353 2603 823 3093 
Q 1294 3584 2113 3584 
Q 2378 3584 2631 3529 
Q 2884 3475 3122 3366 
z
" transform="scale(0.015625)"/>
       <path id="DejaVuSans-74" d="M 1172 4494 
L 1172 3500 
L 2356 3500 
L 2356 3053 
L 1172 3053 
L 1172 1153 
Q 1172 725 1289 603 
Q 1406 481 1766 481 
L 2356 481 
L 2356 0 
L 1766 0 
Q 1100 0 847 248 
Q 594 497 594 1153 
L 594 3053 
L 172 3053 
L 172 3500 
L 594 3500 
L 594 4494 
L 1172 4494 
z
" transform="scale(0.015625)"/>
       <path id="DejaVuSans-41" d="M 2188 4044 
L 1331 1722 
L 3047 1722 
L 2188 4044 
z
M 1831 4666 
L 2547 4666 
L 4325 0 
L 3669 0 
L 3244 1197 
L 1141 1197 
L 716 0 
L 50 0 
L 1831 4666 
z
" transform="scale(0.015625)"/>
       <path id="DejaVuSans-73" d="M 2834 3397 
L 2834 2853 
Q 2591 2978 2328 3040 
Q 2066 3103 1784 3103 
Q 1356 3103 1142 2972 
Q 928 2841 928 2578 
Q 928 2378 1081 2264 
Q 1234 2150 1697 2047 
L 1894 2003 
Q 2506 1872 2764 1633 
Q 3022 1394 3022 966 
Q 3022 478 2636 193 
Q 2250 -91 1575 -91 
Q 1294 -91 989 -36 
Q 684 19 347 128 
L 347 722 
Q 666 556 975 473 
Q 1284 391 1588 391 
Q 1994 391 2212 530 
Q 2431 669 2431 922 
Q 2431 1156 2273 1281 
Q 2116 1406 1581 1522 
L 1381 1569 
Q 847 1681 609 1914 
Q 372 2147 372 2553 
Q 372 3047 722 3315 
Q 1072 3584 1716 3584 
Q 2034 3584 2315 3537 
Q 2597 3491 2834 3397 
z
" transform="scale(0.015625)"/>
       <path id="DejaVuSans-45" d="M 628 4666 
L 3578 4666 
L 3578 4134 
L 1259 4134 
L 1259 2753 
L 3481 2753 
L 3481 2222 
L 1259 2222 
L 1259 531 
L 3634 531 
L 3634 0 
L 628 0 
L 628 4666 
z
" transform="scale(0.015625)"/>
      </defs>
      <use xlink:href="#DejaVuSans-52"/>
      <use xlink:href="#DejaVuSans-65" transform="translate(64.982422 0)"/>
      <use xlink:href="#DejaVuSans-64" transform="translate(126.505859 0)"/>
      <use xlink:href="#DejaVuSans-75" transform="translate(189.982422 0)"/>
      <use xlink:href="#DejaVuSans-63" transform="translate(253.361328 0)"/>
      <use xlink:href="#DejaVuSans-74" transform="translate(308.341797 0)"/>
      <use xlink:href="#DejaVuSans-69" transform="translate(347.550781 0)"/>
      <use xlink:href="#DejaVuSans-6f" transform="translate(375.333984 0)"/>
      <use xlink:href="#DejaVuSans-6e" transform="translate(436.515625 0)"/>
      <use xlink:href="#DejaVuSans-20" transform="translate(499.894531 0)"/>
      <use xlink:href="#DejaVuSans-69" transform="translate(531.681641 0)"/>
      <use xlink:href="#DejaVuSans-6e" transform="translate(559.464844 0)"/>
      <use xlink:href="#DejaVuSans-20" transform="translate(622.84375 0)"/>
      <use xlink:href="#DejaVuSans-41" transform="translate(654.630859 0)"/>
      <use xlink:href="#DejaVuSans-64" transform="translate(721.289062 0)"/>
      <use xlink:href="#DejaVuSans-76" transform="translate(784.765625 0)"/>
      <use xlink:href="#DejaVuSans-65" transform="translate(843.945312 0)"/>
      <use xlink:href="#DejaVuSans-72" transform="translate(905.46875 0)"/>
      <use xlink:href="#DejaVuSans-73" transform="translate(946.582031 0)"/>
      <use xlink:href="#DejaVuSans-65" transform="translate(998.681641 0)"/>
      <use xlink:href="#DejaVuSans-20" transform="translate(1060.205078 0)"/>
      <use xlink:href="#DejaVuSans-45" transform="translate(1091.992188 0)"/>
      <use xlink:href="#DejaVuSans-76" transform="translate(1155.175781 0)"/>
      <use xlink:href="#DejaVuSans-65" transform="translate(1214.355469 0)"/>
      <use xlink:href="#DejaVuSans-6e" transform="translate(1275.878906 0)"/>
      <use xlink:href="#DejaVuSans-74" transform="translate(1339.257812 0)"/>
      <use xlink:href="#DejaVuSans-73" transform="translate(1378.466797 0)"/>
      <use xlink:href="#DejaVuSans-20" transform="translate(1430.566406 0)"/>
      <use xlink:href="#DejaVuSans-28" transform="translate(1462.353516 0)"/>
      <use xlink:href="#DejaVuSans-25" transform="translate(1501.367188 0)"/>
      <use xlink:href="#DejaVuSans-29" transform="translate(1596.386719 0)"/>
     </g>
    </g>
   </g>
   <g id="line2d_31">
    <path d="M 73.832727 65.120016 
L 80.45833 65.075851 
L 87.083933 64.935937 
L 93.709536 64.751849 
L 100.335139 64.552676 
L 106.960742 64.378307 
L 113.586345 64.340686 
L 120.211948 64.741813 
L 126.837551 66.150356 
L 133.463154 69.062226 
L 140.088757 73.199679 
L 146.71436 78.215041 
L 153.339963 83.504468 
L 159.965566 89.351845 
L 166.591169 95.860221 
L 173.216772 102.726263 
L 179.842375 109.569745 
L 186.467978 116.155417 
L 193.093581 122.393377 
L 199.719184 128.272008 
L 206.344787 133.814491 
L 212.97039 139.049002 
L 219.595993 144.001516 
L 226.221596 148.684621 
L 232.847199 153.110826 
L 239.472801 157.303199 
L 246.098404 161.304438 
L 252.724007 165.137609 
L 259.34961 168.837795 
L 265.975213 172.443771 
L 272.600816 175.993773 
L 279.226419 179.489344 
L 285.852022 182.94407 
L 292.477625 186.358919 
L 299.103228 189.72052 
L 305.728831 193.018938 
L 312.354434 196.249759 
L 318.980037 199.397459 
L 325.60564 202.441926 
L 332.231243 205.354951 
L 338.856846 208.093308 
L 345.482449 210.638705 
L 352.108052 213.036067 
L 358.733655 215.295405 
L 365.359258 217.287328 
L 371.984861 218.994002 
L 378.610464 220.397201 
L 385.236067 221.439333 
L 391.86167 222.060923 
L 398.487273 222.199026 
" clip-path="url(#pc648565004)" style="fill: none; stroke: #0571b0; stroke-width: 2; stroke-linecap: square"/>
   </g>
   <g id="line2d_32">
    <path d="M 73.832727 65.120019 
L 80.45833 65.075139 
L 87.083933 64.935268 
L 93.709536 64.753601 
L 100.335139 64.559422 
L 106.960742 64.395373 
L 113.586345 64.383576 
L 120.211948 64.853451 
L 126.837551 66.422831 
L 133.463154 69.623879 
L 140.088757 74.125918 
L 146.71436 79.486997 
L 153.339963 85.004139 
L 159.965566 90.991683 
L 166.591169 97.61479 
L 173.216772 104.614127 
L 179.842375 111.626998 
L 186.467978 118.414138 
L 193.093581 124.876879 
L 199.719184 130.996408 
L 206.344787 136.791833 
L 212.97039 142.292915 
L 219.595993 147.52849 
L 226.221596 152.519905 
L 232.847199 157.286135 
L 239.472801 161.858737 
L 246.098404 166.290453 
L 252.724007 170.614543 
L 259.34961 174.88087 
L 265.975213 179.139121 
L 272.600816 183.440732 
L 279.226419 187.805378 
L 285.852022 192.257387 
L 292.477625 196.805145 
L 299.103228 201.44618 
L 305.728831 206.17357 
L 312.354434 210.987379 
L 318.980037 215.882749 
L 325.60564 220.843687 
L 332.231243 225.837611 
L 338.856846 230.828458 
L 345.482449 235.802821 
L 352.108052 240.80196 
L 358.733655 245.806008 
L 365.359258 250.669809 
L 371.984861 255.355364 
L 378.610464 259.81869 
L 385.236067 263.956564 
L 391.86167 267.638556 
L 398.487273 270.704956 
" clip-path="url(#pc648565004)" style="fill: none; stroke: #92c5de; stroke-width: 2; stroke-linecap: square"/>
   </g>
   <g id="patch_3">
    <path d="M 57.6 281.952 
L 57.6 38.016 
" style="fill: none; stroke: #000000; stroke-width: 0.8; stroke-linejoin: miter; stroke-linecap: square"/>
   </g>
   <g id="patch_4">
    <path d="M 57.6 281.952 
L 414.72 281.952 
" style="fill: none; stroke: #000000; stroke-width: 0.8; stroke-linejoin: miter; stroke-linecap: square"/>
   </g>
   <g id="legend_1">
    <g id="line2d_33">
     <path d="M 64.8 258.54575 
L 72.8 258.54575 
L 80.8 258.54575 
" style="fill: none; stroke: #0571b0; stroke-width: 2; stroke-linecap: square"/>
    </g>
    <g id="text_18">
     <!-- Emergency -->
     <g transform="translate(87.2 261.34575) scale(0.08 -0.08)">
      <defs>
       <path id="DejaVuSans-79" d="M 2059 -325 
Q 1816 -950 1584 -1140 
Q 1353 -1331 966 -1331 
L 506 -1331 
L 506 -850 
L 844 -850 
Q 1081 -850 1212 -737 
Q 1344 -625 1503 -206 
L 1606 56 
L 191 3500 
L 800 3500 
L 1894 763 
L 2988 3500 
L 3597 3500 
L 2059 -325 
z
" transform="scale(0.015625)"/>
      </defs>
      <use xlink:href="#DejaVuSans-45"/>
      <use xlink:href="#DejaVuSans-6d" transform="translate(63.183594 0)"/>
      <use xlink:href="#DejaVuSans-65" transform="translate(160.595703 0)"/>
      <use xlink:href="#DejaVuSans-72" transform="translate(222.119141 0)"/>
      <use xlink:href="#DejaVuSans-67" transform="translate(261.482422 0)"/>
      <use xlink:href="#DejaVuSans-65" transform="translate(324.958984 0)"/>
      <use xlink:href="#DejaVuSans-6e" transform="translate(386.482422 0)"/>
      <use xlink:href="#DejaVuSans-63" transform="translate(449.861328 0)"/>
      <use xlink:href="#DejaVuSans-79" transform="translate(504.841797 0)"/>
     </g>
    </g>
    <g id="line2d_34">
     <path d="M 64.8 270.28825 
L 72.8 270.28825 
L 80.8 270.28825 
" style="fill: none; stroke: #92c5de; stroke-width: 2; stroke-linecap: square"/>
    </g>
    <g id="text_19">
     <!-- Hospitalization -->
     <g transform="translate(87.2 273.08825) scale(0.08 -0.08)">
      <defs>
       <path id="DejaVuSans-48" d="M 628 4666 
L 1259 4666 
L 1259 2753 
L 3553 2753 
L 3553 4666 
L 4184 4666 
L 4184 0 
L 3553 0 
L 3553 2222 
L 1259 2222 
L 1259 0 
L 628 0 
L 628 4666 
z
" transform="scale(0.015625)"/>
       <path id="DejaVuSans-70" d="M 1159 525 
L 1159 -1331 
L 581 -1331 
L 581 3500 
L 1159 3500 
L 1159 2969 
Q 1341 3281 1617 3432 
Q 1894 3584 2278 3584 
Q 2916 3584 3314 3078 
Q 3713 2572 3713 1747 
Q 3713 922 3314 415 
Q 2916 -91 2278 -91 
Q 1894 -91 1617 61 
Q 1341 213 1159 525 
z
M 3116 1747 
Q 3116 2381 2855 2742 
Q 2594 3103 2138 3103 
Q 1681 3103 1420 2742 
Q 1159 2381 1159 1747 
Q 1159 1113 1420 752 
Q 1681 391 2138 391 
Q 2594 391 2855 752 
Q 3116 1113 3116 1747 
z
" transform="scale(0.015625)"/>
       <path id="DejaVuSans-7a" d="M 353 3500 
L 3084 3500 
L 3084 2975 
L 922 459 
L 3084 459 
L 3084 0 
L 275 0 
L 275 525 
L 2438 3041 
L 353 3041 
L 353 3500 
z
" transform="scale(0.015625)"/>
      </defs>
      <use xlink:href="#DejaVuSans-48"/>
      <use xlink:href="#DejaVuSans-6f" transform="translate(75.195312 0)"/>
      <use xlink:href="#DejaVuSans-73" transform="translate(136.376953 0)"/>
      <use xlink:href="#DejaVuSans-70" transform="translate(188.476562 0)"/>
      <use xlink:href="#DejaVuSans-69" transform="translate(251.953125 0)"/>
      <use xlink:href="#DejaVuSans-74" transform="translate(279.736328 0)"/>
      <use xlink:href="#DejaVuSans-61" transform="translate(318.945312 0)"/>
      <use xlink:href="#DejaVuSans-6c" transform="translate(380.224609 0)"/>
      <use xlink:href="#DejaVuSans-69" transform="translate(408.007812 0)"/>
      <use xlink:href="#DejaVuSans-7a" transform="translate(435.791016 0)"/>
      <use xlink:href="#DejaVuSans-61" transform="translate(488.28125 0)"/>
      <use xlink:href="#DejaVuSans-74" transform="translate(549.560547 0)"/>
      <use xlink:href="#DejaVuSans-69" transform="translate(588.769531 0)"/>
      <use xlink:href="#DejaVuSans-6f" transform="translate(616.552734 0)"/>
      <use xlink:href="#DejaVuSans-6e" transform="translate(677.734375 0)"/>
     </g>
    </g>
   </g>
  </g>
 </g>
 <defs>
  <clipPath id="pc648565004">
   <rect x="57.6" y="38.016" width="357.12" height="243.936"/>
  </clipPath>
 </defs>
</svg>
